<?xml version="1.0" standalone="no"?>
<!DOCTYPE svg PUBLIC "-//W3C//DTD SVG 20010904//EN"
 "http://www.w3.org/TR/2001/REC-SVG-20010904/DTD/svg10.dtd">
<svg version="1.0" xmlns="http://www.w3.org/2000/svg"
 width="700.000000pt" height="700.000000pt" viewBox="0 0 700.000000 700.000000"
 preserveAspectRatio="xMidYMid meet">
<metadata>
Created by potrace 1.14, written by Peter Selinger 2001-2017
</metadata>
<g transform="translate(0.000000,700.000000) scale(0.100000,-0.100000)"
fill="#000000" stroke="none">
<path d="M2 3968 l3 -3032 85 -23 c47 -13 168 -45 270 -72 102 -27 295 -79
430 -116 135 -37 253 -68 262 -70 9 -2 142 -37 295 -79 153 -41 314 -84 358
-96 44 -12 87 -23 95 -25 8 -3 31 -8 50 -13 86 -22 779 -208 909 -244 79 -22
151 -41 161 -43 10 -2 137 -36 282 -75 145 -40 277 -73 293 -73 27 -1 97 17
515 129 69 18 253 68 410 110 157 42 344 92 415 111 133 36 286 77 513 137 70
18 204 54 297 79 245 66 423 114 455 122 164 43 331 88 390 105 41 12 84 23
95 25 11 3 108 28 215 57 l195 53 3 3033 2 3032 -3500 0 -3500 0 2 -3032z
m6118 2151 c3 -4 5 -1021 5 -2260 l0 -2252 -180 -49 c-294 -79 -369 -99 -385
-103 -8 -2 -116 -30 -240 -63 -294 -79 -343 -92 -610 -163 -124 -33 -247 -67
-275 -74 -220 -60 -322 -88 -335 -91 -8 -1 -143 -38 -300 -80 -157 -42 -292
-76 -300 -76 -14 1 -779 203 -895 236 -27 8 -104 29 -170 47 -66 17 -169 45
-230 61 -60 16 -126 33 -145 38 -41 10 -508 135 -560 150 -33 9 -135 37 -465
125 -77 20 -145 40 -150 45 -7 6 -10 769 -9 2262 1 1239 2 2253 3 2253 477 4
5238 -2 5241 -6z"/>
<path d="M2255 5233 c-181 -42 -352 -178 -432 -343 -97 -199 -96 -402 4 -600
53 -104 173 -224 274 -274 108 -53 188 -73 299 -74 111 0 207 21 301 68 59 30
150 98 192 145 49 55 110 162 136 242 27 81 29 98 27 213 -2 108 -6 135 -31
200 -100 269 -338 439 -616 438 -52 0 -121 -7 -154 -15z"/>
<path d="M4495 5243 c-105 -15 -223 -67 -312 -140 -68 -55 -81 -69 -131 -143
-83 -120 -118 -247 -109 -397 7 -127 17 -164 72 -274 108 -213 351 -355 595
-348 363 10 647 308 635 666 -2 54 -6 113 -10 132 -33 164 -179 353 -333 433
-120 62 -277 90 -407 71z"/>
<path d="M3440 3283 c-278 -33 -507 -229 -576 -493 -26 -96 -23 -246 5 -338
62 -204 203 -358 397 -433 329 -128 708 36 841 364 44 108 62 273 39 363 -5
16 -10 40 -12 53 -10 50 -55 145 -97 204 -126 176 -304 272 -522 281 -27 1
-61 0 -75 -1z"/>
</g>
</svg>
