<?xml version="1.0" encoding="utf-8"?>
<!-- Generator: Adobe Illustrator 25.2.3, SVG Export Plug-In . SVG Version: 6.00 Build 0)  -->
<svg version="1.1" id="Layer_1" xmlns="http://www.w3.org/2000/svg" xmlns:xlink="http://www.w3.org/1999/xlink" x="0px" y="0px"
	 viewBox="0 0 700 700" style="enable-background:new 0 0 700 700;" xml:space="preserve">
<style type="text/css">
	.st0{fill:#111111;}
</style>
<g>
	<path class="st0" d="M199.1,174.3h-50v49.9v244.9v29.8v21.9l200,53.5l200-53.5v-21.9v-29.8V224.3v-49.9h-50H199.1z M499.1,482.5
		l-150,40.1l-150-40.1V224.3h300V482.5z"/>
	<ellipse class="st0" cx="411.6" cy="311.8" rx="37.5" ry="37.4"/>
	<path class="st0" d="M286.6,349.2c20.7,0,37.5-16.8,37.5-37.4c0-20.7-16.8-37.4-37.5-37.4s-37.5,16.8-37.5,37.4
		C249.1,332.5,265.9,349.2,286.6,349.2z"/>
	<ellipse class="st0" cx="349.1" cy="424.1" rx="37.5" ry="37.4"/>
</g>
</svg>
