<?xml version="1.0" encoding="utf-8"?>
<!-- Generator: Adobe Illustrator 25.2.3, SVG Export Plug-In . SVG Version: 6.00 Build 0)  -->
<svg version="1.1" id="Layer_1" xmlns="http://www.w3.org/2000/svg" xmlns:xlink="http://www.w3.org/1999/xlink" x="0px" y="0px"
	 viewBox="0 0 700 700" style="enable-background:new 0 0 700 700;" xml:space="preserve">
<style type="text/css">
	.st0{fill:#898B8A;}
</style>
<g>
	<path class="st0" d="M206.9,481.1l144,38.5l144-38.5V233.3H206.9V481.1z M410.9,281.3c19.9,0,36,16.1,36,35.9
		c0,19.8-16.1,35.9-36,35.9c-19.9,0-36-16.1-36-35.9C374.9,297.4,391,281.3,410.9,281.3z M386.9,425.1c0,19.8-16.1,35.9-36,35.9
		c-19.9,0-36-16.1-36-35.9c0-19.8,16.1-35.9,36-35.9C370.8,389.1,386.9,405.2,386.9,425.1z M290.9,281.3c19.9,0,36,16.1,36,35.9
		c0,19.8-16.1,35.9-36,35.9c-19.9,0-36-16.1-36-35.9C254.9,297.4,271,281.3,290.9,281.3z"/>
	<path class="st0" d="M349.8,1.2L349.8,1.2c-192.7,0-349,156.3-349,349v0c0,192.7,156.3,349,349,349h0c192.7,0,349-156.3,349-349v0
		C698.8,157.5,542.5,1.2,349.8,1.2z M542.8,233.3v235v28.6v21l-191.9,51.4l-191.9-51.4v-21v-28.6v-235v-47.9h48h287.9h48V233.3z"/>
</g>
</svg>
