<?xml version="1.0" encoding="UTF-8"?>
<svg xmlns="http://www.w3.org/2000/svg" xmlns:xlink="http://www.w3.org/1999/xlink" width="16pt" height="16pt" viewBox="0 0 16 16" version="1.1">
<g id="surface1393">
<path style="fill:none;stroke-width:1;stroke-linecap:butt;stroke-linejoin:miter;stroke:rgb(0%,0%,0%);stroke-opacity:1;stroke-miterlimit:10;" d="M 11.5 11.5 L 3.5 11.5 C 2.949219 11.5 2.5 11.050781 2.5 10.5 L 2.5 2.5 C 2.5 1.949219 2.949219 1.5 3.5 1.5 L 11.5 1.5 C 12.050781 1.5 12.5 1.949219 12.5 2.5 L 12.5 10.5 C 12.5 11.050781 12.050781 11.5 11.5 11.5 Z M 11.5 11.5 "/>
<path style="fill:none;stroke-width:1;stroke-linecap:butt;stroke-linejoin:miter;stroke:rgb(0%,0%,0%);stroke-opacity:1;stroke-miterlimit:10;" d="M 12.5 10.5 L 12.5 12.5 C 12.5 13.050781 12.050781 13.5 11.5 13.5 L 3.5 13.5 C 2.949219 13.5 2.5 13.050781 2.5 12.5 L 2.5 10.5 M 6.5 5.5 C 6.5 4.949219 6.949219 4.5 7.5 4.5 C 8.050781 4.5 8.5 4.949219 8.5 5.5 C 8.5 6.363281 6.5 8.375 6.5 8.375 L 6.5 8.5 L 9 8.5 "/>
</g>
</svg>
