<?xml version="1.0" encoding="utf-8"?>
<svg xmlns="http://www.w3.org/2000/svg" viewBox="0 0 16 16" fill="#111111"><path d="M 4.5 2 C 3.675781 2 3 2.675781 3 3.5 L 3 4 L 2 4 L 2 5 L 4 5 L 4 3.5 C 4 3.21875 4.21875 3 4.5 3 L 11.5 3 C 11.78125 3 12 3.21875 12 3.5 L 12 12.5 C 12 12.78125 11.78125 13 11.5 13 L 4.5 13 C 4.21875 13 4 12.78125 4 12.5 L 4 12 L 3 12 L 3 12.5 C 3 13.324219 3.675781 14 4.5 14 L 11.5 14 C 12.324219 14 13 13.324219 13 12.5 L 13 3.5 C 13 2.675781 12.324219 2 11.5 2 Z M 8 5 C 6.902344 5 6 5.902344 6 7 C 6 7.535156 6.21875 8.023438 6.5625 8.382813 C 5.636719 8.894531 5 9.871094 5 11 L 6 11 C 6 9.890625 6.890625 9 8 9 C 9.109375 9 10 9.890625 10 11 L 11 11 C 11 9.871094 10.363281 8.894531 9.4375 8.382813 C 9.78125 8.023438 10 7.535156 10 7 C 10 5.902344 9.097656 5 8 5 Z M 3 6 L 3 7 L 2 7 L 2 8 L 4 8 L 4 6 Z M 8 6 C 8.558594 6 9 6.441406 9 7 C 9 7.558594 8.558594 8 8 8 C 7.441406 8 7 7.558594 7 7 C 7 6.441406 7.441406 6 8 6 Z M 3 9 L 3 10 L 2 10 L 2 11 L 4 11 L 4 9 Z" fill="#111111"/></svg>
