<?xml version="1.0" encoding="UTF-8"?>
<svg xmlns="http://www.w3.org/2000/svg" xmlns:xlink="http://www.w3.org/1999/xlink" width="16pt" height="16pt" viewBox="0 0 16 16" version="1.1">
<g id="surface4764">
<path style="fill:none;stroke-width:1;stroke-linecap:butt;stroke-linejoin:miter;stroke:rgb(0%,0%,0%);stroke-opacity:1;stroke-miterlimit:10;" d="M 13.5 3.5 L 10.65625 3.5 L 10.441406 3.023438 C 10.296875 2.703125 10.015625 2.5 9.710938 2.5 L 6.289062 2.5 C 5.984375 2.5 5.703125 2.703125 5.558594 3.023438 L 5.34375 3.5 L 2.5 3.5 C 1.949219 3.5 1.5 3.949219 1.5 4.5 L 1.5 11.5 C 1.5 12.050781 1.949219 12.5 2.5 12.5 L 13.5 12.5 C 14.050781 12.5 14.5 12.050781 14.5 11.5 L 14.5 4.5 C 14.5 3.949219 14.050781 3.5 13.5 3.5 Z M 13.5 3.5 "/>
<path style="fill:none;stroke-width:1;stroke-linecap:butt;stroke-linejoin:miter;stroke:rgb(0%,0%,0%);stroke-opacity:1;stroke-miterlimit:10;" d="M 8 5.5 C 6.621094 5.5 5.5 6.621094 5.5 8 C 5.5 9.378906 6.621094 10.5 8 10.5 C 9.378906 10.5 10.5 9.378906 10.5 8 C 10.5 6.621094 9.378906 5.5 8 5.5 Z M 8 5.5 "/>
<path style=" stroke:none;fill-rule:nonzero;fill:rgb(0%,0%,0%);fill-opacity:1;" d="M 3 5 L 4 5 L 4 6 L 3 6 Z M 3 5 "/>
</g>
</svg>
