<?xml version="1.0" encoding="utf-8"?>
<svg xmlns="http://www.w3.org/2000/svg" viewBox="0 0 16 16" fill="#111111"><path d="M 7.5 2 C 7.0793814 2 6.6973836 2.1778163 6.4238281 2.4609375 L 3.1484375 3.2402344 C 2.3559868 3.4293715 1.8412699 4.2331463 2.0449219 5.0234375 L 2.046875 5.0253906 L 4.1503906 12.927734 C 4.3548119 13.715776 5.1740683 14.182395 5.9667969 13.994141 L 6.7753906 13.802734 C 6.9915619 13.924207 7.2365883 14 7.5 14 L 12.5 14 C 13.322531 14 14 13.322531 14 12.5 L 14 3.5 C 14 2.6774686 13.322531 2 12.5 2 L 7.5 2 z M 7.5 3 L 12.5 3 C 12.781469 3 13 3.2185314 13 3.5 L 13 12.5 C 13 12.781469 12.781469 13 12.5 13 L 7.5 13 C 7.2185314 13 7 12.781469 7 12.5 L 7 3.5 C 7 3.2185314 7.2185314 3 7.5 3 z M 6 3.5898438 L 6 12.5 C 6 12.654123 6.0301496 12.800972 6.0742188 12.941406 L 5.7363281 13.021484 C 5.4516002 13.089104 5.1814712 12.924764 5.1171875 12.675781 L 5.1171875 12.673828 L 3.0136719 4.7734375 L 3.0136719 4.7714844 C 2.9506438 4.5229978 3.0969437 4.280314 3.3808594 4.2128906 L 6 3.5898438 z" fill="#111111"/></svg>
