<?xml version="1.0" encoding="utf-8"?>
<svg xmlns="http://www.w3.org/2000/svg" viewBox="0 0 16 16" fill="#111111"><path d="M 7.5 0.992188 C 7.164063 0.996094 6.828125 1.097656 6.539063 1.304688 L 5.636719 1.953125 L 4.515625 2.109375 L 4.492188 2.109375 C 3.804688 2.265625 3.265625 2.804688 3.109375 3.492188 L 3.109375 3.515625 L 2.953125 4.632813 L 2.296875 5.492188 L 2.285156 5.511719 C 1.90625 6.117188 1.894531 6.886719 2.304688 7.460938 L 2.960938 8.371094 L 3.15625 9.507813 C 3.207031 9.933594 3.433594 10.289063 3.75 10.546875 L 2.148438 12.144531 C 2.003906 12.289063 1.960938 12.503906 2.039063 12.691406 C 2.117188 12.878906 2.296875 13 2.5 13 L 4 13 L 4 14.5 C 4 14.703125 4.121094 14.882813 4.308594 14.960938 C 4.496094 15.039063 4.710938 14.996094 4.851563 14.855469 L 7.5 12.207031 L 10.144531 14.855469 C 10.289063 14.996094 10.503906 15.039063 10.691406 14.960938 C 10.878906 14.882813 11 14.703125 11 14.5 L 11 13 L 12.5 13 C 12.703125 13 12.882813 12.878906 12.960938 12.691406 C 13.039063 12.503906 12.996094 12.289063 12.855469 12.144531 L 11.242188 10.535156 C 11.589844 10.28125 11.84375 9.90625 11.894531 9.453125 L 12.046875 8.363281 L 12.707031 7.445313 L 12.714844 7.433594 C 13.09375 6.828125 13.105469 6.058594 12.699219 5.484375 L 12.039063 4.570313 L 11.84375 3.492188 C 11.761719 2.765625 11.179688 2.1875 10.453125 2.101563 L 9.363281 1.953125 L 8.460938 1.304688 C 8.171875 1.097656 7.835938 0.992188 7.5 0.992188 Z M 7.5 2.003906 C 7.636719 2.003906 7.777344 2.042969 7.878906 2.117188 L 8.980469 2.914063 L 10.335938 3.09375 L 10.34375 3.097656 C 10.617188 3.128906 10.816406 3.328125 10.847656 3.601563 L 10.847656 3.617188 L 11.09375 4.976563 L 11.886719 6.070313 C 12.03125 6.273438 12.042969 6.613281 11.867188 6.898438 L 11.089844 7.980469 L 10.90625 9.335938 L 10.902344 9.34375 C 10.871094 9.617188 10.671875 9.816406 10.394531 9.847656 L 10.382813 9.851563 L 8.972656 10.09375 L 7.878906 10.886719 C 7.671875 11.03125 7.332031 11.042969 7.046875 10.867188 L 6.027344 10.089844 L 4.664063 9.90625 L 4.65625 9.902344 C 4.382813 9.871094 4.183594 9.671875 4.152344 9.398438 L 4.148438 9.382813 L 3.90625 7.96875 L 3.117188 6.878906 L 3.117188 6.875 C 2.96875 6.671875 2.957031 6.332031 3.132813 6.046875 L 3.910156 5.027344 L 4.089844 3.710938 C 4.160156 3.398438 4.398438 3.160156 4.710938 3.089844 L 6.019531 2.914063 L 7.125 2.117188 C 7.226563 2.042969 7.363281 2.003906 7.5 2.003906 Z M 10.1875 10.894531 L 11.292969 12 L 10.5 12 C 10.222656 12 10 12.222656 10 12.5 L 10 13.292969 L 8.421875 11.714844 C 8.433594 11.707031 8.449219 11.707031 8.460938 11.699219 L 9.371094 11.039063 Z M 4.78125 10.925781 L 5.632813 11.046875 L 6.492188 11.703125 L 6.511719 11.714844 C 6.527344 11.722656 6.542969 11.726563 6.554688 11.734375 L 5 13.292969 L 5 12.5 C 5 12.222656 4.777344 12 4.5 12 L 3.707031 12 Z" fill="#111111"/></svg>
