<?xml version="1.0" encoding="UTF-8"?>
<svg xmlns="http://www.w3.org/2000/svg" xmlns:xlink="http://www.w3.org/1999/xlink" width="56pt" height="56pt" viewBox="0 0 56 56" version="1.1">
<g id="surface2155">
<path style="fill:none;stroke-width:1;stroke-linecap:square;stroke-linejoin:miter;stroke:rgb(0%,0%,0%);stroke-opacity:1;stroke-miterlimit:10;" d="M 12.5 3.5 L 6.5 9.5 L 4.5 7.5 " transform="matrix(3.5,0,0,3.5,0,0)"/>
<path style=" stroke:none;fill-rule:nonzero;fill:rgb(0%,0%,0%);fill-opacity:1;" d="M 45.019531 21.914062 C 45.355469 23.429688 45.539062 25.003906 45.492188 26.625 C 45.199219 37.238281 36.324219 45.625 25.714844 45.332031 C 15.105469 45.039062 6.714844 36.164062 7.007812 25.554688 C 7.300781 14.941406 16.175781 6.550781 26.785156 6.847656 C 30.261719 6.945312 33.488281 7.972656 36.261719 9.671875 L 38.875 7.199219 C 35.429688 4.890625 31.328125 3.472656 26.882812 3.347656 C 14.34375 3 3.859375 12.917969 3.511719 25.460938 C 3.160156 38 13.078125 48.480469 25.621094 48.832031 C 38.160156 49.183594 48.644531 39.261719 48.992188 26.722656 C 49.066406 24.09375 48.664062 21.5625 47.90625 19.1875 Z M 45.019531 21.914062 "/>
</g>
</svg>
