<?xml version="1.0" encoding="UTF-8"?>
<svg xmlns="http://www.w3.org/2000/svg" xmlns:xlink="http://www.w3.org/1999/xlink" width="16pt" height="16pt" viewBox="0 0 16 16" version="1.1">
<g id="surface2438">
<path style=" stroke:none;fill-rule:nonzero;fill:rgb(0%,0%,0%);fill-opacity:1;" d="M 6.5 13 L 6 13.5 L 6.5 14 L 7 13.5 Z M 4.5 2 L 4 2.5 L 4.5 3 L 5 2.5 Z M 10.5 2 L 10 2.5 L 10.5 3 L 11 2.5 Z M 13.5 6 L 13 6.5 L 13.5 7 L 14 6.5 Z M 2.5 8.875 L 2 9.375 L 2.5 9.875 L 3 9.375 Z M 2.5 8.875 "/>
<path style="fill:none;stroke-width:1;stroke-linecap:butt;stroke-linejoin:miter;stroke:rgb(0%,0%,0%);stroke-opacity:1;stroke-miterlimit:10;" d="M 6 2.5 C 8.375 2.5 8.5 4.386719 8.5 5 M 13.5 14 L 13.5 13.96875 C 13.480469 13.59375 13.460938 12.5 13.125 12.5 C 12.585938 12.5 12.25 13.5 11.625 13.5 C 11.09375 13.5 11.058594 12.5 10.554688 12.5 C 10.050781 12.5 9.589844 13.5 9 13.5 C 9 13.5 8.5 13.539062 8.5 13 M 10 6.5 C 10.125 6.5 11.375 6.589844 11.375 5.875 C 11.375 5.617188 10.179688 4.910156 10.5 4.625 C 10.65625 4.484375 11.269531 4.496094 11.75 4.5 C 12.25 4.503906 12.621094 4.503906 12.75 4.375 C 13.125 4 12.5 3.515625 12.5 3.125 C 12.5 2.734375 13.125 2.5 14 2.5 M 13.5 10 C 13.5 9.949219 13.496094 9.898438 13.492188 9.851562 C 13.367188 8.789062 12.863281 8.5 12 8.5 M 8.878906 7.121094 C 7.878906 6.121094 6.789062 5.503906 6.125 5.5 C 5.929688 5.5 5.769531 5.550781 5.660156 5.660156 C 5.175781 6.144531 5.828125 7.585938 7.121094 8.878906 C 8.414062 10.171875 9.855469 10.824219 10.339844 10.339844 C 10.824219 9.855469 10.171875 8.414062 8.878906 7.121094 Z M 8.878906 7.121094 "/>
<path style="fill:none;stroke-width:1;stroke-linecap:butt;stroke-linejoin:miter;stroke:rgb(0%,0%,0%);stroke-opacity:1;stroke-miterlimit:10;" d="M 5.5 6 L 2.875 13.125 L 10 10.5 M 3 2.5 C 3 2.5 2.5 2.5 2.5 3 C 2.5 3.5 3.5 3.5 3.5 4.125 C 3.5 4.75 2.5 4.625 2.5 5.25 C 2.5 5.875 3.5 5.875 3.5 6.5 C 3.5 7.125 3 7.5 2 7.5 "/>
</g>
</svg>
