<?xml version="1.0" encoding="utf-8"?>
<!-- Generator: Adobe Illustrator 25.2.3, SVG Export Plug-In . SVG Version: 6.00 Build 0)  -->
<svg version="1.1" id="Layer_1" xmlns="http://www.w3.org/2000/svg" xmlns:xlink="http://www.w3.org/1999/xlink" x="0px" y="0px"
	 viewBox="0 0 16 16" style="enable-background:new 0 0 16 16;" xml:space="preserve">
<style type="text/css">
	.st0{fill:#111111;}
</style>
<path class="st0" d="M4.5,2C4.4,2,4.2,2.1,4.1,2.1l-2,2C2,4.3,2,4.7,2.1,4.9L5.3,8L3.4,9.9l-1.4,4.1l4.1-1.4l0.1-0.1L8,10.7l3.1,3.1
	c0.2,0.2,0.5,0.2,0.7,0l2-2c0.2-0.2,0.2-0.5,0-0.7L10.7,8l2.7-2.6h0c0.8-0.8,0.8-2.1,0-2.8C13,2.2,12.5,2,12,2s-1,0.2-1.4,0.6h0
	L8,5.3L4.9,2.1C4.8,2.1,4.6,2,4.5,2z M4.5,3.2L5.3,4L4.6,4.6l0.7,0.7L6,4.7L7.3,6L6,7.3L3.2,4.5L4.5,3.2z M10.4,4.2l1.4,1.4
	l-6.2,6.1l-1.9,0.6l0.6-1.9L10.4,4.2z M10,8.7l1.3,1.3l-0.6,0.6l0.7,0.7l0.6-0.6l0.8,0.8l-1.3,1.3L8.7,10L10,8.7z"/>
</svg>
