<?xml version="1.0" encoding="UTF-8"?>
<svg xmlns="http://www.w3.org/2000/svg" xmlns:xlink="http://www.w3.org/1999/xlink" width="16pt" height="16pt" viewBox="0 0 16 16" version="1.1">
<g id="surface1732">
<path style="fill:none;stroke-width:1;stroke-linecap:butt;stroke-linejoin:miter;stroke:rgb(0%,0%,0%);stroke-opacity:1;stroke-miterlimit:10;" d="M 8.335938 7.605469 L 8.835938 7.96875 L 9.449219 8.050781 C 9.699219 8.078125 9.894531 8.273438 9.921875 8.523438 L 10.03125 9.136719 L 10.394531 9.636719 C 10.53125 9.832031 10.53125 10.109375 10.394531 10.332031 L 10.03125 10.835938 L 9.949219 11.449219 C 9.921875 11.699219 9.726562 11.894531 9.476562 11.921875 L 8.835938 12.03125 L 8.335938 12.394531 C 8.140625 12.53125 7.863281 12.53125 7.640625 12.394531 L 7.167969 12.03125 L 6.550781 11.949219 C 6.300781 11.921875 6.105469 11.726562 6.078125 11.476562 L 5.96875 10.835938 L 5.605469 10.335938 C 5.46875 10.140625 5.46875 9.863281 5.605469 9.640625 L 5.96875 9.164062 L 6.050781 8.550781 C 6.105469 8.300781 6.300781 8.105469 6.550781 8.050781 L 7.164062 7.96875 L 7.664062 7.605469 C 7.859375 7.464844 8.140625 7.464844 8.335938 7.605469 Z M 8.335938 7.605469 "/>
<path style="fill:none;stroke-width:1;stroke-linecap:butt;stroke-linejoin:round;stroke:rgb(0%,0%,0%);stroke-opacity:1;stroke-miterlimit:10;" d="M 6.078125 11.5 L 2.5 11.5 C 1.949219 11.5 1.5 11.050781 1.5 10.5 L 1.5 3.5 C 1.5 2.949219 1.949219 2.5 2.5 2.5 L 13.5 2.5 C 14.050781 2.5 14.5 2.949219 14.5 3.5 L 14.5 10.5 C 14.5 11.050781 14.050781 11.5 13.5 11.5 L 9.949219 11.5 M 4 5.5 L 12 5.5 "/>
<path style=" stroke:none;fill-rule:nonzero;fill:rgb(0%,0%,0%);fill-opacity:1;" d="M 7.558594 12.335938 L 7.164062 12.035156 L 6.550781 11.949219 C 6.421875 11.933594 6.304688 11.871094 6.21875 11.78125 L 4 14 L 5 14 L 5 15 Z M 9.78125 11.78125 C 9.699219 11.855469 9.59375 11.90625 9.476562 11.921875 L 8.835938 12.035156 L 8.410156 12.339844 L 11 15 L 11 14 L 12 14 Z M 9.78125 11.78125 "/>
</g>
</svg>
