<?xml version="1.0" encoding="utf-8"?>
<!-- Generator: Adobe Illustrator 25.2.3, SVG Export Plug-In . SVG Version: 6.00 Build 0)  -->
<svg version="1.1" id="Layer_1" xmlns="http://www.w3.org/2000/svg" xmlns:xlink="http://www.w3.org/1999/xlink" x="0px" y="0px"
	 viewBox="0 0 16 16" style="enable-background:new 0 0 16 16;" xml:space="preserve">
<style type="text/css">
	.st0{fill:#111111;}
</style>
<path class="st0" d="M4.5,2C3.7,2,3,2.7,3,3.5v9C3,13.3,3.7,14,4.5,14h7c0.8,0,1.5-0.7,1.5-1.5V5.3L9.7,2H4.5z M4.5,3H9v3h3v6.5
	c0,0.3-0.2,0.5-0.5,0.5h-7C4.2,13,4,12.8,4,12.5v-9C4,3.2,4.2,3,4.5,3z M10,3.7L11.3,5H10V3.7z"/>
</svg>
