<?xml version="1.0" encoding="utf-8"?>
<svg xmlns="http://www.w3.org/2000/svg" viewBox="0 0 16 16" fill="#111111"><path d="M 7.5 0.00390625 C 7.238281 0.00390625 6.980469 0.101563 6.78125 0.296875 L 0.296875 6.78125 C -0.09375 7.175781 -0.09375 7.824219 0.296875 8.21875 L 6.78125 14.703125 C 7.175781 15.097656 7.824219 15.097656 8.21875 14.703125 L 14.703125 8.21875 C 15.09375 7.828125 15.09375 7.175781 14.703125 6.78125 L 8.21875 0.296875 C 8.019531 0.101563 7.761719 0.00390625 7.5 0.00390625 Z M 7.507813 1.003906 L 13.996094 7.492188 C 14.003906 7.5 14.003906 7.503906 13.996094 7.511719 L 7.507813 13.996094 C 7.5 14.003906 7.496094 14.003906 7.488281 13.996094 L 1.007813 7.511719 C 0.996094 7.5 0.992188 7.5 1.003906 7.492188 L 7.488281 1.007813 C 7.5 0.996094 7.5 0.992188 7.507813 1.003906 Z M 7 4 L 7 9 L 8 9 L 8 4 Z M 7 10 L 7 11 L 8 11 L 8 10 Z" fill="#111111"/></svg>
