<?xml version="1.0" encoding="utf-8"?>
<svg xmlns="http://www.w3.org/2000/svg" viewBox="0 0 16 16" fill="#111111"><path d="M 2.5 1 C 1.675781 1 1 1.675781 1 2.5 L 1 7.5 C 1 8.324219 1.675781 9 2.5 9 L 2.992188 9 L 2.992188 11 L 5.664063 9 L 6 9 L 6 11.5 C 6 12.324219 6.675781 13 7.5 13 L 10.339844 13 L 13.003906 15 L 13.003906 13 L 13.5 13 C 14.324219 13 15 12.324219 15 11.5 L 15 6.5 C 15 5.675781 14.324219 5 13.5 5 L 10 5 L 10 2.5 C 10 1.675781 9.324219 1 8.5 1 Z M 2.5 2 L 8.5 2 C 8.78125 2 9 2.21875 9 2.5 L 9 7.5 C 9 7.78125 8.78125 8 8.5 8 L 5.328125 8 L 3.992188 9 L 3.992188 8 L 2.5 8 C 2.21875 8 2 7.78125 2 7.5 L 2 2.5 C 2 2.21875 2.21875 2 2.5 2 Z M 5.5 3 C 4.675781 3 4 3.675781 4 4.5 C 4 5.324219 4.675781 6 5.5 6 C 5.675781 6 5.84375 5.960938 6 5.90625 L 6 7 L 7 7 L 7 4.5 C 7 3.675781 6.324219 3 5.5 3 Z M 5.5 4 C 5.78125 4 6 4.21875 6 4.5 C 6 4.78125 5.78125 5 5.5 5 C 5.21875 5 5 4.78125 5 4.5 C 5 4.21875 5.21875 4 5.5 4 Z M 10 6 L 13.5 6 C 13.78125 6 14 6.21875 14 6.5 L 14 11.5 C 14 11.78125 13.78125 12 13.5 12 L 12.003906 12 L 12.003906 13 L 10.671875 12 L 7.5 12 C 7.21875 12 7 11.78125 7 11.5 L 7 9 L 8.5 9 C 8.675781 9 8.84375 8.960938 9 8.90625 L 9 11 L 10 11 L 10 10 L 11 10 L 11 11 L 12 11 L 12 8.5 C 12 7.675781 11.324219 7 10.5 7 C 10.324219 7 10.15625 7.039063 10 7.09375 Z M 10.5 8 C 10.78125 8 11 8.21875 11 8.5 L 11 9 L 10 9 L 10 8.5 C 10 8.21875 10.21875 8 10.5 8 Z" fill="#111111"/></svg>
