<?xml version="1.0" encoding="utf-8"?>
<svg xmlns="http://www.w3.org/2000/svg" viewBox="0 0 16 16" fill="#ffffff"><path d="M 8.515625 1 C 8.431 0.99725 8.3465312 1.0156406 8.2695312 1.0566406 C 8.0135312 1.1896406 2 4.38 2 9.5 C 2 12.533 4.467 15 7.5 15 C 10.533 15 13 12.533 13 9.5 C 13 7.642 11.994484 6.6265313 11.021484 5.6445312 C 9.9814844 4.5945313 9 3.604 9 1.5 C 9 1.325 8.9097656 1.1622656 8.7597656 1.0722656 C 8.6852656 1.0262656 8.60025 1.00275 8.515625 1 z M 8.0507812 2.3476562 C 8.2917813 4.3086563 9.3575 5.3866094 10.3125 6.3496094 C 11.2185 7.2646094 12 8.053 12 9.5 C 12 11.116386 11.134961 12.524744 9.8515625 13.318359 C 9.9415183 13.06083 10 12.787737 10 12.5 C 10 11.635 9.4939063 11.085688 9.0039062 10.554688 C 8.4879063 9.9946875 8 9.464 8 8.5 C 8 8.295 7.8745937 8.1111563 7.6835938 8.0351562 C 7.4955938 7.9621562 7.2777188 8.00725 7.1367188 8.15625 C 7.0497188 8.24925 5 10.45 5 12.5 C 5 12.787737 5.0584817 13.06083 5.1484375 13.318359 C 3.8650389 12.524744 3 11.116386 3 9.5 C 3 5.942 6.5317812 3.3126563 8.0507812 2.3476562 z M 7.1992188 9.6640625 C 7.4492188 10.342063 7.8905312 10.819469 8.2695312 11.230469 C 8.7225312 11.723469 9 12.048 9 12.5 C 9 13.223625 8.4855762 13.828627 7.8027344 13.96875 C 7.7008416 13.97568 7.6036179 14 7.5 14 C 7.3963821 14 7.2991584 13.97568 7.1972656 13.96875 C 6.5144238 13.828627 6 13.223625 6 12.5 C 6 11.509 6.6642187 10.398062 7.1992188 9.6640625 z" fill="#ffffff"/></svg>
