<?xml version="1.0" encoding="UTF-8"?>
<svg xmlns="http://www.w3.org/2000/svg" xmlns:xlink="http://www.w3.org/1999/xlink" width="16pt" height="16pt" viewBox="0 0 16 16" version="1.1">
<g id="surface852">
<path style="fill:none;stroke-width:1;stroke-linecap:butt;stroke-linejoin:miter;stroke:rgb(0%,0%,0%);stroke-opacity:1;stroke-miterlimit:10;" d="M 14.5 7.5 L 5.222656 7.5 C 4.789062 7.5 4.40625 7.773438 4.273438 8.183594 L 2.5 13.5 "/>
<path style="fill:none;stroke-width:1;stroke-linecap:butt;stroke-linejoin:miter;stroke:rgb(0%,0%,0%);stroke-opacity:1;stroke-miterlimit:10;" d="M 13.5 4.5 L 6.5 4.5 L 5.703125 3.023438 C 5.53125 2.703125 5.191406 2.5 4.824219 2.5 L 2.5 2.5 C 1.949219 2.5 1.5 2.949219 1.5 3.5 L 1.5 12.5 C 1.5 13.050781 1.949219 13.5 2.5 13.5 L 13.5 13.5 C 14.050781 13.5 14.5 13.050781 14.5 12.5 L 14.5 5.5 C 14.5 4.949219 14.050781 4.5 13.5 4.5 Z M 13.5 4.5 "/>
</g>
</svg>
