<?xml version="1.0" encoding="UTF-8"?>
<svg xmlns="http://www.w3.org/2000/svg" xmlns:xlink="http://www.w3.org/1999/xlink" width="16pt" height="16pt" viewBox="0 0 16 16" version="1.1">
<g id="surface2759">
<path style="fill:none;stroke-width:1;stroke-linecap:butt;stroke-linejoin:miter;stroke:rgb(0%,0%,0%);stroke-opacity:1;stroke-miterlimit:10;" d="M 12.5 13.5 L 2.5 13.5 C 1.949219 13.5 1.5 13.050781 1.5 12.5 L 1.5 2.5 C 1.5 1.949219 1.949219 1.5 2.5 1.5 L 12.5 1.5 C 13.050781 1.5 13.5 1.949219 13.5 2.5 L 13.5 12.5 C 13.5 13.050781 13.050781 13.5 12.5 13.5 Z M 4 5.5 L 6 5.5 M 4 9.5 L 6 9.5 "/>
<path style="fill:none;stroke-width:1;stroke-linecap:butt;stroke-linejoin:miter;stroke:rgb(0%,0%,0%);stroke-opacity:1;stroke-miterlimit:10;" d="M 7.5 4.5 L 10.5 4.5 L 10.5 6.5 L 7.5 6.5 Z M 7.5 8.5 L 10.5 8.5 L 10.5 10.5 L 7.5 10.5 Z M 7.5 8.5 "/>
</g>
</svg>
