<?xml version="1.0" encoding="utf-8"?>
<svg xmlns="http://www.w3.org/2000/svg" viewBox="0 0 16 16" fill="#111111"><path d="M 2.5 2 C 1.675781 2 1 2.675781 1 3.5 L 1 10.5 C 1 11.324219 1.675781 12 2.5 12 L 3 12 L 3 12.5 C 3 13.324219 3.675781 14 4.5 14 L 13.5 14 C 14.324219 14 15 13.324219 15 12.5 L 15 5.5 C 15 4.675781 14.324219 4 13.5 4 L 13 4 L 13 3.5 C 13 2.675781 12.324219 2 11.5 2 Z M 2.5 3 L 11.5 3 C 11.78125 3 12 3.21875 12 3.5 L 12 8.765625 L 9.488281 6.027344 L 7.515625 8.328125 L 4.488281 5.027344 L 2 7.921875 L 2 3.5 C 2 3.21875 2.21875 3 2.5 3 Z M 9.5 4 C 9.222656 4 9 4.222656 9 4.5 C 9 4.777344 9.222656 5 9.5 5 C 9.777344 5 10 4.777344 10 4.5 C 10 4.222656 9.777344 4 9.5 4 Z M 13 5 L 13.5 5 C 13.78125 5 14 5.21875 14 5.5 L 14 12.5 C 14 12.78125 13.78125 13 13.5 13 L 4.5 13 C 4.21875 13 4 12.78125 4 12.5 L 4 12 L 11.5 12 C 12.324219 12 13 11.324219 13 10.5 Z M 4.511719 6.535156 L 8.605469 11 L 2.5 11 C 2.21875 11 2 10.78125 2 10.5 L 2 9.460938 Z M 9.511719 7.535156 L 12 10.25 L 12 10.5 C 12 10.78125 11.78125 11 11.5 11 L 9.960938 11 L 8.195313 9.070313 Z" fill="#111111"/></svg>
