<?xml version="1.0" encoding="utf-8"?>
<svg xmlns="http://www.w3.org/2000/svg" viewBox="0 0 16 16" fill="#111111"><path d="M 8 0.960938 L 0 4.164063 L 0 12 L 1 12 L 1 5.578125 L 3 6.28125 L 3 10.53125 L 3.242188 10.679688 C 3.242188 10.679688 5.410156 12 8 12 C 10.589844 12 12.757813 10.679688 12.757813 10.679688 L 13 10.53125 L 13 6.28125 L 16 5.230469 L 16 4.164063 Z M 8 2.039063 L 14.578125 4.667969 L 8 6.96875 L 1.421875 4.667969 Z M 4 6.628906 L 8 8.03125 L 8.164063 7.972656 L 12 6.632813 L 12 9.929688 C 11.671875 10.113281 10.03125 11 8 11 C 5.96875 11 4.328125 10.113281 4 9.929688 Z M 0.5 13 C 0.222656 13 0 13.222656 0 13.5 C 0 13.777344 0.222656 14 0.5 14 C 0.777344 14 1 13.777344 1 13.5 C 1 13.222656 0.777344 13 0.5 13 Z" fill="#111111"/></svg>
