<?xml version="1.0" encoding="utf-8"?>
<svg xmlns="http://www.w3.org/2000/svg" viewBox="0 0 16 16" fill="#111111"><path d="M 2.5 2 A 0.50005 0.50005 0 0 0 2 2.5 L 2 4.5 A 0.50005 0.50005 0 0 0 2.5 5 L 4.5 5 A 0.50005 0.50005 0 0 0 5 4.5 L 5 2.5 A 0.50005 0.50005 0 0 0 4.5 2 L 2.5 2 z M 6.5 2 A 0.50005 0.50005 0 0 0 6 2.5 L 6 4.5 A 0.50005 0.50005 0 0 0 6.5 5 L 8.5 5 A 0.50005 0.50005 0 0 0 9 4.5 L 9 2.5 A 0.50005 0.50005 0 0 0 8.5 2 L 6.5 2 z M 10.5 2 A 0.50005 0.50005 0 0 0 10 2.5 L 10 4.5 A 0.50005 0.50005 0 0 0 10.5 5 L 12.5 5 A 0.50005 0.50005 0 0 0 13 4.5 L 13 2.5 A 0.50005 0.50005 0 0 0 12.5 2 L 10.5 2 z M 3 3 L 4 3 L 4 4 L 3 4 L 3 3 z M 7 3 L 8 3 L 8 4 L 7 4 L 7 3 z M 11 3 L 12 3 L 12 4 L 11 4 L 11 3 z M 2.5 6 A 0.50005 0.50005 0 0 0 2 6.5 L 2 8.5 A 0.50005 0.50005 0 0 0 2.5 9 L 4.5 9 A 0.50005 0.50005 0 0 0 5 8.5 L 5 6.5 A 0.50005 0.50005 0 0 0 4.5 6 L 2.5 6 z M 6.5 6 A 0.50005 0.50005 0 0 0 6 6.5 L 6 8.5 A 0.50005 0.50005 0 0 0 6.5 9 L 8.5 9 A 0.50005 0.50005 0 0 0 9 8.5 L 9 6.5 A 0.50005 0.50005 0 0 0 8.5 6 L 6.5 6 z M 10.5 6 A 0.50005 0.50005 0 0 0 10 6.5 L 10 8.5 A 0.50005 0.50005 0 0 0 10.5 9 L 12.5 9 A 0.50005 0.50005 0 0 0 13 8.5 L 13 6.5 A 0.50005 0.50005 0 0 0 12.5 6 L 10.5 6 z M 3 7 L 4 7 L 4 8 L 3 8 L 3 7 z M 7 7 L 8 7 L 8 8 L 7 8 L 7 7 z M 11 7 L 12 7 L 12 8 L 11 8 L 11 7 z M 2.5 10 A 0.50005 0.50005 0 0 0 2 10.5 L 2 12.5 A 0.50005 0.50005 0 0 0 2.5 13 L 4.5 13 A 0.50005 0.50005 0 0 0 5 12.5 L 5 10.5 A 0.50005 0.50005 0 0 0 4.5 10 L 2.5 10 z M 6.5 10 A 0.50005 0.50005 0 0 0 6 10.5 L 6 12.5 A 0.50005 0.50005 0 0 0 6.5 13 L 8.5 13 A 0.50005 0.50005 0 0 0 9 12.5 L 9 10.5 A 0.50005 0.50005 0 0 0 8.5 10 L 6.5 10 z M 10.5 10 A 0.50005 0.50005 0 0 0 10 10.5 L 10 12.5 A 0.50005 0.50005 0 0 0 10.5 13 L 12.5 13 A 0.50005 0.50005 0 0 0 13 12.5 L 13 10.5 A 0.50005 0.50005 0 0 0 12.5 10 L 10.5 10 z M 3 11 L 4 11 L 4 12 L 3 12 L 3 11 z M 7 11 L 8 11 L 8 12 L 7 12 L 7 11 z M 11 11 L 12 11 L 12 12 L 11 12 L 11 11 z" fill="#111111"/></svg>
