<?xml version="1.0" encoding="utf-8"?>
<svg xmlns="http://www.w3.org/2000/svg" viewBox="0 0 16 16" fill="#ffffff"><path d="M 5 2 C 2.972656 2 1.304688 3.527344 1.054688 5.484375 C 1.019531 5.644531 1 5.8125 1 6 C 1 8.285156 2.746094 10.347656 4.414063 11.878906 C 6.078125 13.414063 7.742188 14.425781 7.742188 14.425781 L 8 14.585938 L 8.257813 14.425781 C 8.257813 14.425781 9.921875 13.414063 11.589844 11.878906 C 13.253906 10.347656 15 8.285156 15 6 C 15 5.8125 14.980469 5.648438 14.949219 5.492188 C 14.695313 3.527344 13.03125 2 11 2 C 9.757813 2 8.730469 2.648438 8 3.539063 C 7.269531 2.648438 6.242188 2 5 2 Z M 5 3 C 6.101563 3 7.046875 3.59375 7.570313 4.476563 L 8 5.203125 L 8.429688 4.476563 C 8.953125 3.59375 9.898438 3 11 3 C 12.535156 3 13.777344 4.144531 13.960938 5.632813 L 13.96875 5.671875 C 13.988281 5.765625 14 5.871094 14 6 C 14 7.75 12.496094 9.6875 10.910156 11.144531 C 9.457031 12.484375 8.230469 13.230469 8 13.375 C 7.769531 13.230469 6.542969 12.484375 5.085938 11.144531 C 3.503906 9.6875 2 7.75 2 6 C 2 5.867188 2.011719 5.761719 2.03125 5.671875 L 2.039063 5.648438 L 2.039063 5.625 C 2.226563 4.144531 3.464844 3 5 3 Z" fill="#ffffff"/></svg>
