<?xml version="1.0" encoding="utf-8"?>
<svg xmlns="http://www.w3.org/2000/svg" viewBox="0 0 16 16" fill="#ffffff"><path d="M 12.996094 2 L 11.298828 8.2851562 A 0.50005 0.50005 0 0 0 11.207031 8.4648438 C 10.937222 9.3959347 10.176522 10 9.25 10 L 3.9882812 10 C 2.879704 10 1.9882814 10.91601 1.9882812 12 C 1.9882812 13.099351 2.8889299 14 3.9882812 14 L 4.4082031 14 A 0.50005 0.50005 0 0 0 4.5703125 14 L 7.75 14 A 0.50005 0.50005 0 0 0 7.7558594 14 C 9.530202 13.98179 11.06321 12.805453 11.568359 11.091797 A 0.50005 0.50005 0 0 0 11.568359 11.087891 L 11.666016 10.75 L 11.287109 10.75 A 0.50005 0.50005 0 0 0 11.794922 10.285156 L 14.03125 2 L 12.996094 2 z M 5.5 3 C 4.6265362 3 3.8359784 3.1132676 3.2207031 3.3183594 C 2.9130655 3.4209053 2.6471413 3.5442987 2.4257812 3.71875 C 2.2044213 3.8932013 2 4.1592638 2 4.5 C 2 4.5398032 2.0103449 4.575543 2.015625 4.6132812 A 0.50005 0.50005 0 0 0 2.015625 4.6152344 A 0.50005 0.50005 0 0 0 2 4.75 L 2 6.375 C 2 6.7107143 2.1758953 7.0130242 2.4003906 7.2167969 C 2.6248859 7.4205695 2.8997692 7.560303 3.2128906 7.671875 C 3.8391335 7.895019 4.6320707 8 5.5 8 C 6.3679293 8 7.1608665 7.895019 7.7871094 7.671875 C 8.1002308 7.560303 8.3751141 7.4205695 8.5996094 7.2167969 C 8.8241047 7.0130242 9 6.7107143 9 6.375 L 9 4.75 A 0.50005 0.50005 0 0 0 8.984375 4.6132812 C 8.9896551 4.575543 9 4.5398032 9 4.5 C 9 4.1592638 8.7955788 3.8932013 8.5742188 3.71875 C 8.3528586 3.5442987 8.0869345 3.4209053 7.7792969 3.3183594 C 7.1640216 3.1132676 6.3734638 3 5.5 3 z M 5.5 4 C 6.2833904 4 6.9923795 4.1107411 7.4628906 4.2675781 C 7.6943831 4.3447423 7.8634433 4.435336 7.9472656 4.5 C 7.8634433 4.564664 7.6943831 4.6552577 7.4628906 4.7324219 C 6.9923795 4.8892589 6.2833904 5 5.5 5 C 4.7166096 5 4.0076205 4.8892589 3.5371094 4.7324219 C 3.3056169 4.6552577 3.1365567 4.564664 3.0527344 4.5 C 3.1365567 4.435336 3.3056169 4.3447423 3.5371094 4.2675781 C 4.0076205 4.1107411 4.7166096 4 5.5 4 z M 3 5.5917969 C 3.073516 5.6214237 3.1416266 5.6552818 3.2207031 5.6816406 C 3.8359784 5.8867324 4.6265362 6 5.5 6 C 6.3734638 6 7.1640216 5.8867324 7.7792969 5.6816406 C 7.8583734 5.6552818 7.926484 5.6214237 8 5.5917969 L 8 6.375 C 8 6.389286 8.0079304 6.403773 7.9277344 6.4765625 C 7.8475426 6.5493524 7.6818005 6.6463376 7.4511719 6.7285156 C 6.9899147 6.8928716 6.2820707 7 5.5 7 C 4.7179293 7 4.0100853 6.8928716 3.5488281 6.7285156 C 3.3181995 6.6463376 3.1524578 6.5493524 3.0722656 6.4765625 C 2.9920734 6.4037726 3 6.3892857 3 6.375 L 3 5.5917969 z M 10.697266 10.498047 L 10.607422 10.8125 C 10.244351 12.037875 9.226314 12.862673 7.9980469 12.976562 L 7.9902344 11 L 9.25 11 C 9.7930844 11 10.255336 10.756901 10.697266 10.498047 z M 3.9882812 11 L 3.9882812 13 C 3.4256326 13 2.9882812 12.562649 2.9882812 12 C 2.9882812 11.46799 3.4348585 11 3.9882812 11 z M 4.9882812 11 L 6.9902344 11 L 6.9980469 13 L 4.9882812 13 L 4.9882812 11 z" fill="#ffffff"/></svg>
