<?xml version="1.0" encoding="utf-8"?>
<svg xmlns="http://www.w3.org/2000/svg" viewBox="0 0 16 16" fill="#111111"><path d="M 6.375 0 C 5.6118068 0 5 0.64491667 5 1.40625 L 5 7.3203125 C 4.6949473 7.6780784 4.3826188 7.9917087 3.6679688 8.6269531 C 2.4604959 9.7002622 2 10.875 2 12 L 2 15 L 3 15 L 3 12 C 3 11.125 3.289504 10.299738 4.3320312 9.3730469 C 5.4587495 8.3715196 5.6463906 8.1811147 6.4003906 7.1757812 L 6.4023438 7.171875 L 7.1289062 6.1679688 C 7.2205881 6.0655044 7.3486637 6 7.5 6 C 7.7814686 6 8 6.2185314 8 6.5 C 8 6.567837 7.9866696 6.6288108 7.9628906 6.6875 L 7.9628906 6.6894531 L 6.0351562 11.566406 L 6.9648438 11.933594 L 7.3339844 11 L 11 11 L 11 11.513672 C 11 11.599672 10.9795 11.682859 10.9375 11.755859 L 8.3574219 15 L 9.6386719 15 C 10.465672 13.962 11.685453 12.431781 11.689453 12.425781 C 11.732453 12.371781 11.7755 12.306281 11.8125 12.238281 C 11.9345 12.022281 12 11.770672 12 11.513672 L 12 10.939453 C 12.577583 10.768744 13 10.224174 13 9.59375 L 13 1.40625 C 13 0.64491667 12.388193 0 11.625 0 L 6.375 0 z M 6.375 1 L 11.625 1 C 11.827807 1 12 1.1675833 12 1.40625 L 12 9.59375 C 12 9.8324167 11.827807 10 11.625 10 L 11.5 10 L 7.7285156 10 L 8.890625 7.0625 C 8.9608458 6.8891892 9 6.6981629 9 6.5 C 9 5.6774686 8.3225314 5 7.5 5 C 7.0549576 5 6.6491418 5.1962196 6.375 5.5078125 L 6.359375 5.5273438 L 6 6.0234375 L 6 1.40625 C 6 1.1675833 6.1721932 1 6.375 1 z" fill="#111111"/></svg>
