<?xml version="1.0" encoding="UTF-8"?>
<svg xmlns="http://www.w3.org/2000/svg" xmlns:xlink="http://www.w3.org/1999/xlink" width="32pt" height="32pt" viewBox="0 0 32 32" version="1.1">
<g id="surface1005">
<path style=" stroke:none;fill-rule:nonzero;fill:rgb(0%,0%,0%);fill-opacity:1;" d="M 10 6.5 C 10 7.878906 8.878906 9 7.5 9 C 6.121094 9 5 7.878906 5 6.5 C 5 5.121094 6.121094 4 7.5 4 C 8.878906 4 10 5.121094 10 6.5 Z M 10 6.5 "/>
<path style=" stroke:none;fill-rule:nonzero;fill:rgb(0%,0%,0%);fill-opacity:1;" d="M 23 7 C 23 8.105469 22.105469 9 21 9 C 19.894531 9 19 8.105469 19 7 C 19 5.894531 19.894531 5 21 5 C 22.105469 5 23 5.894531 23 7 Z M 23 7 "/>
<path style=" stroke:none;fill-rule:nonzero;fill:rgb(0%,0%,0%);fill-opacity:1;" d="M 15 27 C 15 28.105469 14.105469 29 13 29 C 11.894531 29 11 28.105469 11 27 C 11 25.894531 11.894531 25 13 25 C 14.105469 25 15 25.894531 15 27 Z M 15 27 "/>
<path style=" stroke:none;fill-rule:nonzero;fill:rgb(0%,0%,0%);fill-opacity:1;" d="M 21 15 C 22.652344 15 24 16.347656 24 18 C 24 19.652344 22.652344 21 21 21 C 19.347656 21 18 19.652344 18 18 C 18 16.347656 19.347656 15 21 15 M 21 12 C 17.6875 12 15 14.6875 15 18 C 15 21.3125 17.6875 24 21 24 C 24.3125 24 27 21.3125 27 18 C 27 14.6875 24.3125 12 21 12 Z M 21 12 "/>
<path style=" stroke:none;fill-rule:nonzero;fill:rgb(0%,0%,0%);fill-opacity:1;" d="M 20 7 L 22 7 L 22 13 L 20 13 Z M 20 7 "/>
<path style=" stroke:none;fill-rule:nonzero;fill:rgb(0%,0%,0%);fill-opacity:1;" d="M 12.292969 26.292969 L 17.292969 21.292969 L 18.707031 22.707031 L 13.707031 27.707031 Z M 12.292969 26.292969 "/>
<path style=" stroke:none;fill-rule:nonzero;fill:rgb(0%,0%,0%);fill-opacity:1;" d="M 6.410156 6.785156 L 7.613281 5.1875 L 19.589844 14.214844 L 18.386719 15.8125 Z M 6.410156 6.785156 "/>
</g>
</svg>
