<?xml version="1.0" encoding="utf-8"?>
<svg xmlns="http://www.w3.org/2000/svg" viewBox="0 0 16 16" fill="#111111"><path d="M 9.464844 1 L 10.878906 2.414063 L 9 4.292969 L 8 3.292969 L 5 6.292969 L 4 5.292969 L 1.023438 8.273438 L 1.726563 8.976563 L 4 6.707031 L 5 7.707031 L 8 4.707031 L 9 5.707031 L 11.585938 3.121094 L 13 4.535156 L 13 1 Z M 13 6 L 13 14 L 14 14 L 14 6 Z M 11 7 L 11 14 L 12 14 L 12 7 Z M 9 8 L 9 14 L 10 14 L 10 8 Z M 7 9 L 7 14 L 8 14 L 8 9 Z M 5 10 L 5 14 L 6 14 L 6 10 Z M 3 11 L 3 14 L 4 14 L 4 11 Z M 1 12 L 1 14 L 2 14 L 2 12 Z" fill="#111111"/></svg>
