<?xml version="1.0" encoding="UTF-8"?>
<svg xmlns="http://www.w3.org/2000/svg" xmlns:xlink="http://www.w3.org/1999/xlink" width="56pt" height="56pt" viewBox="0 0 56 56" version="1.1">
<g id="surface501">
<path style=" stroke:none;fill-rule:nonzero;fill:rgb(0%,0%,0%);fill-opacity:1;" d="M 28 45.5 C 26.066406 45.5 24.5 47.066406 24.5 49 C 24.5 50.933594 26.066406 52.5 28 52.5 C 29.933594 52.5 31.5 50.933594 31.5 49 C 31.5 47.066406 29.933594 45.5 28 45.5 Z M 28 45.5 "/>
<path style="fill:none;stroke-width:1;stroke-linecap:butt;stroke-linejoin:miter;stroke:rgb(0%,0%,0%);stroke-opacity:1;stroke-miterlimit:10;" d="M 9.5 11.5 L 9.5 12.5 C 9.5 13.052455 9.052455 13.5 8.5 13.5 L 7.5 13.5 C 6.947545 13.5 6.5 13.052455 6.5 12.5 L 6.5 11.5 M 3.5 6 C 3.5 3.514509 5.514509 1.5 8 1.5 C 10.485491 1.5 12.5 3.514509 12.5 6 C 12.5 9.5 9.5 9.5 9.5 11.5 L 6.5 11.5 C 6.5 9.5 3.5 9.5 3.5 6 Z M 3.5 6 " transform="matrix(3.5,0,0,3.5,0,0)"/>
<path style=" stroke:none;fill-rule:nonzero;fill:rgb(0%,0%,0%);fill-opacity:1;" d="M 50.75 17.5 C 49.785156 17.5 49 18.285156 49 19.25 C 49 20.214844 49.785156 21 50.75 21 C 51.714844 21 52.5 20.214844 52.5 19.25 C 52.5 18.285156 51.714844 17.5 50.75 17.5 Z M 50.75 10.5 C 49.785156 10.5 49 11.285156 49 12.25 C 49 13.214844 49.785156 14 50.75 14 C 51.714844 14 52.5 13.214844 52.5 12.25 C 52.5 11.285156 51.714844 10.5 50.75 10.5 Z M 50.75 24.5 C 49.785156 24.5 49 25.285156 49 26.25 C 49 27.214844 49.785156 28 50.75 28 C 51.714844 28 52.5 27.214844 52.5 26.25 C 52.5 25.285156 51.714844 24.5 50.75 24.5 Z M 5.25 17.5 C 4.285156 17.5 3.5 18.285156 3.5 19.25 C 3.5 20.214844 4.285156 21 5.25 21 C 6.214844 21 7 20.214844 7 19.25 C 7 18.285156 6.214844 17.5 5.25 17.5 Z M 5.25 10.5 C 4.285156 10.5 3.5 11.285156 3.5 12.25 C 3.5 13.214844 4.285156 14 5.25 14 C 6.214844 14 7 13.214844 7 12.25 C 7 11.285156 6.214844 10.5 5.25 10.5 Z M 5.25 24.5 C 4.285156 24.5 3.5 25.285156 3.5 26.25 C 3.5 27.214844 4.285156 28 5.25 28 C 6.214844 28 7 27.214844 7 26.25 C 7 25.285156 6.214844 24.5 5.25 24.5 Z M 5.25 24.5 "/>
</g>
</svg>
