<?xml version="1.0" encoding="UTF-8"?>
<svg xmlns="http://www.w3.org/2000/svg" xmlns:xlink="http://www.w3.org/1999/xlink" width="56pt" height="56pt" viewBox="0 0 56 56" version="1.1">
<g id="surface535">
<path style=" stroke:none;fill-rule:nonzero;fill:rgb(0%,0%,0%);fill-opacity:1;" d="M 28 45.5 C 26.066406 45.5 24.5 47.066406 24.5 49 C 24.5 50.933594 26.066406 52.5 28 52.5 C 29.933594 52.5 31.5 50.933594 31.5 49 C 31.5 47.066406 29.933594 45.5 28 45.5 Z M 28 45.5 "/>
<path style="fill:none;stroke-width:1;stroke-linecap:butt;stroke-linejoin:miter;stroke:rgb(0%,0%,0%);stroke-opacity:1;stroke-miterlimit:10;" d="M 9.5 11.5 L 9.5 12.5 C 9.5 13.052455 9.052455 13.5 8.5 13.5 L 7.5 13.5 C 6.947545 13.5 6.5 13.052455 6.5 12.5 L 6.5 11.5 " transform="matrix(3.5,0,0,3.5,0,0)"/>
<path style=" stroke:none;fill-rule:nonzero;fill:rgb(0%,0%,0%);fill-opacity:1;" d="M 20.730469 13.453125 C 22.621094 11.632812 25.175781 10.5 28 10.5 C 33.789062 10.5 38.5 15.210938 38.5 21 C 38.5 24.503906 37.273438 26.277344 35.703125 28.425781 L 38.214844 30.9375 C 38.277344 30.847656 38.339844 30.761719 38.402344 30.675781 C 40.089844 28.363281 42 25.746094 42 21 C 42 13.277344 35.722656 7 28 7 C 24.210938 7 20.78125 8.527344 18.257812 10.980469 Z M 33.707031 31.382812 C 32.667969 33.175781 31.800781 35.375 31.566406 38.5 L 24.433594 38.5 C 24.0625 33.59375 22.140625 30.960938 20.421875 28.609375 C 18.792969 26.371094 17.5 24.605469 17.5 21 C 17.5 19.3125 17.9375 17.738281 18.648438 16.324219 L 16.082031 13.753906 C 14.789062 15.875 14 18.339844 14 21 C 14 25.746094 15.910156 28.363281 17.597656 30.675781 C 19.347656 33.066406 21 35.332031 21 40.25 L 21 42 L 35 42 L 35 40.25 C 35 37.476562 35.535156 35.5625 36.304688 33.976562 Z M 33.707031 31.382812 "/>
<path style="fill:none;stroke-width:1;stroke-linecap:butt;stroke-linejoin:miter;stroke:rgb(0%,0%,0%);stroke-opacity:1;stroke-miterlimit:10;" d="M 2.5 2.5 L 13.5 13.5 " transform="matrix(3.5,0,0,3.5,0,0)"/>
</g>
</svg>
