<?xml version="1.0" encoding="UTF-8"?>
<svg xmlns="http://www.w3.org/2000/svg" xmlns:xlink="http://www.w3.org/1999/xlink" width="16pt" height="16pt" viewBox="0 0 16 16" version="1.1">
<g id="surface2548">
<path style=" stroke:none;fill-rule:nonzero;fill:rgb(0%,0%,0%);fill-opacity:1;" d="M 11 3 C 10.449219 3 10 3.449219 10 4 C 10 4.550781 10.449219 5 11 5 C 11.550781 5 12 4.550781 12 4 C 12 3.449219 11.550781 3 11 3 Z M 11 3 "/>
<path style="fill:none;stroke-width:1;stroke-linecap:butt;stroke-linejoin:round;stroke:rgb(0%,0%,0%);stroke-opacity:1;stroke-miterlimit:10;" d="M 13.5 4 C 13.5 2.617188 12.382812 1.5 11 1.5 C 9.617188 1.5 8.5 2.617188 8.5 4 C 8.5 5.75 11 8.5 11 8.5 C 11 8.5 13.5 5.75 13.5 4 Z M 13.5 4 "/>
<path style="fill:none;stroke-width:1;stroke-linecap:butt;stroke-linejoin:miter;stroke:rgb(0%,0%,0%);stroke-opacity:1;stroke-miterlimit:10;" d="M 5.5 2.5 L 5.5 12.5 "/>
<path style=" stroke:none;fill-rule:nonzero;fill:rgb(0%,0%,0%);fill-opacity:1;" d="M 13 8.433594 L 13 11.980469 L 10 12.835938 L 10 9.605469 C 9.964844 9.574219 9.921875 9.546875 9.890625 9.507812 C 9.691406 9.292969 9.363281 8.90625 9 8.433594 L 9 12.859375 L 5.621094 12.015625 C 5.535156 11.992188 5.445312 11.996094 5.363281 12.019531 L 2 12.984375 L 1.5 12.984375 L 2 12.984375 L 2 4.003906 L 5.507812 3.019531 L 7.058594 3.40625 C 7.082031 3.269531 7.105469 3.136719 7.140625 3.003906 C 7.179688 2.828125 7.234375 2.65625 7.300781 2.492188 C 7.308594 2.472656 7.308594 2.457031 7.316406 2.441406 L 5.621094 2.015625 C 5.535156 1.992188 5.445312 1.992188 5.363281 2.019531 L 1.363281 3.144531 C 1.148438 3.203125 1 3.402344 1 3.625 L 1 12.984375 C 1 13.296875 1.140625 13.582031 1.386719 13.773438 C 1.628906 13.964844 1.941406 14.03125 2.257812 13.949219 L 5.507812 13.015625 L 9.378906 13.984375 C 9.417969 13.996094 9.460938 14 9.5 14 C 9.546875 14 9.59375 13.992188 9.636719 13.980469 L 13.636719 12.839844 C 13.851562 12.777344 14 12.582031 14 12.359375 L 14 6.953125 C 13.675781 7.503906 13.328125 8.007812 13 8.433594 Z M 13 8.433594 "/>
</g>
</svg>
