<?xml version="1.0" encoding="utf-8"?>
<svg xmlns="http://www.w3.org/2000/svg" viewBox="0 0 16 16" fill="#111111"><path d="M 4.5 1.03125 A 0.50005 0.50005 0 0 0 4 1.53125 L 4 3.5 A 0.50005 0.50005 0 0 0 4.2519531 3.9335938 L 7.4707031 5.7734375 L 6.2597656 8.2597656 L 3.4121094 8.6835938 A 0.50005 0.50005 0 0 0 3.1367188 9.5351562 L 5.2050781 11.554688 L 4.7246094 14.417969 A 0.50005 0.50005 0 0 0 5.453125 14.941406 L 7.9960938 13.585938 L 10.546875 14.927734 A 0.50005 0.50005 0 0 0 11.273438 14.400391 L 10.777344 11.541016 L 12.835938 9.5117188 A 0.50005 0.50005 0 0 0 12.556641 8.6601562 L 9.7070312 8.25 L 8.4941406 5.7929688 L 11.748047 3.9335938 A 0.50005 0.50005 0 0 0 12 3.5 L 12 1.53125 A 0.50005 0.50005 0 0 0 11.5 1.03125 L 4.5 1.03125 z M 5 2.03125 L 6 2.03125 L 6 3.78125 L 5 3.2089844 L 5 2.03125 z M 7 2.03125 L 9 2.03125 L 9 4.3515625 L 8 4.9238281 L 7 4.3515625 L 7 2.03125 z M 10 2.03125 L 11 2.03125 L 11 3.2089844 L 10 3.78125 L 10 2.03125 z M 7.9804688 7.0097656 L 8.9257812 8.9296875 A 0.50005 0.50005 0 0 0 9.3027344 9.203125 L 11.417969 9.5078125 L 9.890625 11.013672 A 0.50005 0.50005 0 0 0 9.7480469 11.455078 L 10.113281 13.570312 L 8.2285156 12.578125 A 0.50005 0.50005 0 0 0 7.7597656 12.580078 L 5.8789062 13.582031 L 6.234375 11.462891 A 0.50005 0.50005 0 0 0 6.0898438 11.021484 L 4.5546875 9.5234375 L 6.6660156 9.2089844 A 0.50005 0.50005 0 0 0 7.0429688 8.9335938 L 7.9804688 7.0097656 z" fill="#111111"/></svg>
