<?xml version="1.0" encoding="UTF-8"?>
<svg xmlns="http://www.w3.org/2000/svg" xmlns:xlink="http://www.w3.org/1999/xlink" width="16pt" height="16pt" viewBox="0 0 16 16" version="1.1">
<g id="surface5266">
<path style=" stroke:none;fill-rule:nonzero;fill:rgb(0%,0%,0%);fill-opacity:1;" d="M 3 8.015625 L 1 9.128906 L 1 11.898438 L 3 13.015625 L 5 11.898438 L 5 9.128906 Z M 3 8.015625 "/>
<path style=" stroke:none;fill-rule:nonzero;fill:rgb(0%,0%,0%);fill-opacity:1;" d="M 3 8.015625 L 1 9 L 1 12 L 3 13.015625 L 5 12 L 5 9 Z M 8 1 L 6 2 L 6 5 L 8 6 L 10 5 L 10 2 Z M 13 8.015625 L 11 9 L 11 12 L 13 13.015625 L 15 12 L 15 9 Z M 10.546875 12.890625 L 10 12.613281 L 10 12.078125 L 8 13 L 6 12.078125 L 6 12.613281 L 5.453125 12.890625 L 5.386719 12.925781 L 7.660156 13.941406 C 7.878906 14.019531 8.121094 14.019531 8.339844 13.941406 L 10.621094 12.929688 Z M 12 7.390625 L 12.558594 7.117188 L 13 6.898438 L 13 5.386719 C 13 4.996094 12.777344 4.644531 12.425781 4.480469 L 11 3.808594 L 11 4.914062 L 12 5.386719 Z M 4 7.390625 L 4 5.398438 L 5 4.953125 L 5 3.855469 L 3.59375 4.484375 C 3.230469 4.644531 3 5.003906 3 5.398438 L 3 6.898438 L 3.441406 7.117188 Z M 4 7.390625 "/>
</g>
</svg>
