<?xml version="1.0" encoding="utf-8"?>
<!-- Generator: Adobe Illustrator 25.2.3, SVG Export Plug-In . SVG Version: 6.00 Build 0)  -->
<svg version="1.1" id="Layer_1" xmlns="http://www.w3.org/2000/svg" xmlns:xlink="http://www.w3.org/1999/xlink" x="0px" y="0px"
	 viewBox="0 0 16 16" style="enable-background:new 0 0 16 16;" xml:space="preserve">
<style type="text/css">
	.st0{fill:#111111;}
</style>
<path class="st0" d="M8.9,1C5.1,1,2,3.9,2,7.5C2,11.1,5.1,14,8.9,14c1,0,1.9-0.2,2.8-0.5c0.3-0.1,0.4-0.4,0.3-0.7
	c-0.1-0.1-0.1-0.2-0.3-0.3C9.6,11.7,8,9.7,8,7.5s1.6-4.2,3.7-5c0.3-0.1,0.4-0.4,0.3-0.7c-0.1-0.1-0.1-0.2-0.3-0.3
	C10.8,1.2,9.9,1,8.9,1z M8.9,2c0.4,0,0.8,0.2,1.2,0.2C8.3,3.4,7,5.3,7,7.5s1.3,4.1,3.1,5.3C9.7,12.8,9.3,13,8.9,13
	C5.6,13,3,10.5,3,7.5C3,4.5,5.6,2,8.9,2z"/>
</svg>
