<?xml version="1.0" encoding="utf-8"?>
<svg xmlns="http://www.w3.org/2000/svg" viewBox="0 0 16 16" fill="#111111"><path d="M 7.5 1 C 3.917969 1 1 3.917969 1 7.5 C 1 11.082031 3.917969 14 7.5 14 C 11.082031 14 14 11.082031 14 7.5 C 14 3.917969 11.082031 1 7.5 1 Z M 7.5 2 C 10.542969 2 13 4.457031 13 7.5 C 13 10.542969 10.542969 13 7.5 13 C 4.457031 13 2 10.542969 2 7.5 C 2 4.457031 4.457031 2 7.5 2 Z M 10 4 C 9.449219 4 9 4.449219 9 5 C 9 5.550781 9.449219 6 10 6 C 10.550781 6 11 5.550781 11 5 C 11 4.449219 10.550781 4 10 4 Z M 4.5 5 C 4.222656 5 4 5.222656 4 5.5 C 4 5.777344 4.222656 6 4.5 6 C 4.777344 6 5 5.777344 5 5.5 C 5 5.222656 4.777344 5 4.5 5 Z M 5 8 C 4.449219 8 4 8.449219 4 9 C 4 9.550781 4.449219 10 5 10 C 5.550781 10 6 9.550781 6 9 C 6 8.449219 5.550781 8 5 8 Z M 11.5 8 C 11.222656 8 11 8.222656 11 8.5 C 11 8.777344 11.222656 9 11.5 9 C 11.777344 9 12 8.777344 12 8.5 C 12 8.222656 11.777344 8 11.5 8 Z" fill="#111111"/></svg>
