<?xml version="1.0" encoding="utf-8"?>
<svg xmlns="http://www.w3.org/2000/svg" viewBox="0 0 16 16" fill="#111111"><path d="M 4.5 2 C 3.6774686 2 3 2.6774686 3 3.5 L 3 12.5 C 3 13.322531 3.6774686 14 4.5 14 L 11.5 14 C 12.322531 14 13 13.322531 13 12.5 L 13 3.5 C 13 2.6774686 12.322531 2 11.5 2 L 4.5 2 z M 4.5 3 L 11.5 3 C 11.781469 3 12 3.2185314 12 3.5 L 12 12.5 C 12 12.781469 11.781469 13 11.5 13 L 4.5 13 C 4.2185314 13 4 12.781469 4 12.5 L 4 3.5 C 4 3.2185314 4.2185314 3 4.5 3 z M 5 5 L 5 6 L 11 6 L 11 5 L 5 5 z M 5 8 L 5 9 L 9 9 L 9 8 L 5 8 z M 10 8 L 10 9 L 11 9 L 11 8 L 10 8 z M 5 10 L 5 11 L 9 11 L 9 10 L 5 10 z M 10 10 L 10 11 L 11 11 L 11 10 L 10 10 z" fill="#111111"/></svg>
