<?xml version="1.0" encoding="utf-8"?>
<!-- Generator: Adobe Illustrator 25.2.3, SVG Export Plug-In . SVG Version: 6.00 Build 0)  -->
<svg version="1.1" id="Layer_1" xmlns="http://www.w3.org/2000/svg" xmlns:xlink="http://www.w3.org/1999/xlink" x="0px" y="0px"
	 viewBox="0 0 16 16" style="enable-background:new 0 0 16 16;" xml:space="preserve">
<style type="text/css">
	.st0{fill:#111111;}
</style>
<path class="st0" d="M7.5,1C3.9,1,1,3.9,1,7.5S3.9,14,7.5,14S14,11.1,14,7.5S11.1,1,7.5,1z M7.5,2c3,0,5.5,2.5,5.5,5.5
	c0,1.3-0.5,2.6-1.3,3.5c-0.4-1.2-1.4-2.2-2.5-2.7C9.7,7.9,10,7.2,10,6.5C10,5.1,8.9,4,7.5,4S5,5.1,5,6.5c0,0.7,0.3,1.4,0.8,1.8
	C4.6,8.8,3.7,9.8,3.3,11C2.5,10.1,2,8.8,2,7.5C2,4.5,4.5,2,7.5,2z M7.5,5C8.3,5,9,5.7,9,6.5C9,7.3,8.3,8,7.5,8C6.7,8,6,7.3,6,6.5
	C6,5.7,6.7,5,7.5,5z M7.5,9c1.7,0,3.1,1.2,3.4,2.8C10,12.6,8.8,13,7.5,13S5,12.6,4.1,11.8C4.4,10.2,5.8,9,7.5,9z"/>
</svg>
