<?xml version="1.0" encoding="utf-8"?>
<svg xmlns="http://www.w3.org/2000/svg" viewBox="0 0 16 16" fill="#111111"><path d="M 9.4921875 2 A 0.50005 0.50005 0 0 0 9 2.5 L 9 4.2929688 L 7.2929688 6 L 4.5 6 A 0.50005 0.50005 0 0 0 4.1464844 6.8535156 L 6.2929688 9 L 2.0214844 13.271484 L 2.7285156 13.978516 L 7 9.7070312 L 9.1464844 11.853516 A 0.50005 0.50005 0 0 0 10 11.5 L 10 8.8242188 L 11.716797 7 L 13.5 7 A 0.50005 0.50005 0 0 0 13.853516 6.1464844 L 9.8535156 2.1464844 A 0.50005 0.50005 0 0 0 9.4921875 2 z M 10 3.7070312 L 12.292969 6 L 11.5 6 A 0.50005 0.50005 0 0 0 11.136719 6.1582031 L 9.1367188 8.2832031 A 0.50005 0.50005 0 0 0 9 8.625 L 9 10.292969 L 5.7070312 7 L 7.5 7 A 0.50005 0.50005 0 0 0 7.8535156 6.8535156 L 9.8535156 4.8535156 A 0.50005 0.50005 0 0 0 10 4.5 L 10 3.7070312 z" fill="#111111"/></svg>
