<?xml version="1.0" encoding="UTF-8"?>
<svg xmlns="http://www.w3.org/2000/svg" xmlns:xlink="http://www.w3.org/1999/xlink" width="16pt" height="16pt" viewBox="0 0 16 16" version="1.1">
<g id="surface1943">
<path style="fill:none;stroke-width:1;stroke-linecap:butt;stroke-linejoin:round;stroke:rgb(0%,0%,0%);stroke-opacity:1;stroke-miterlimit:10;" d="M 1.5 5.5 L 13.5 5.5 L 13.5 14.5 L 1.5 14.5 Z M 1.5 5.5 "/>
<path style=" stroke:none;fill-rule:nonzero;fill:rgb(0%,0%,0%);fill-opacity:1;" d="M 6 12.5 L 6 7.5 L 10 10 Z M 13 4 L 2 4 L 2 3.5 C 2 3.222656 2.222656 3 2.5 3 L 12.5 3 C 12.777344 3 13 3.222656 13 3.5 Z M 12 2 L 3 2 L 3 1.5 C 3 1.222656 3.222656 1 3.5 1 L 11.5 1 C 11.777344 1 12 1.222656 12 1.5 Z M 12 2 "/>
</g>
</svg>
