<?xml version="1.0" encoding="utf-8"?>
<!-- Generator: Adobe Illustrator 25.2.3, SVG Export Plug-In . SVG Version: 6.00 Build 0)  -->
<svg version="1.1" id="Layer_1" xmlns="http://www.w3.org/2000/svg" xmlns:xlink="http://www.w3.org/1999/xlink" x="0px" y="0px"
	 viewBox="0 0 16 16" style="enable-background:new 0 0 16 16;" xml:space="preserve">
<style type="text/css">
	.st0{fill:#111111;}
</style>
<path class="st0" d="M5,3C3.6,3,2.6,3.6,1.9,4.3C1.3,5,1,5.8,1,6.5v4.8c0,1,0.8,1.8,1.8,1.8h2.5c1,0,1.8-0.8,1.8-1.8V8.8
	C7,7.8,6.2,7,5.2,7H2.8C2.5,7,2.2,7.1,2,7.2V6.5c0-0.3,0.2-1,0.7-1.5C3.2,4.4,3.9,4,5,4V3z M13,3c-1.4,0-2.4,0.6-3.1,1.3
	C9.3,5,9,5.8,9,6.5v4.8c0,1,0.8,1.8,1.8,1.8h2.5c1,0,1.8-0.8,1.8-1.8V8.8c0-1-0.8-1.8-1.8-1.8h-2.5c-0.3,0-0.5,0.1-0.8,0.2V6.5
	c0-0.3,0.2-1,0.7-1.5c0.5-0.5,1.2-1,2.3-1V3z M2.8,8h2.5C5.7,8,6,8.3,6,8.8v2.5C6,11.7,5.7,12,5.2,12H2.8C2.3,12,2,11.7,2,11.2V8.8
	C2,8.3,2.3,8,2.8,8z M10.8,8h2.5C13.7,8,14,8.3,14,8.8v2.5c0,0.4-0.3,0.8-0.8,0.8h-2.5c-0.4,0-0.8-0.3-0.8-0.8V8.8
	C10,8.3,10.3,8,10.8,8z"/>
</svg>
