<?xml version="1.0" encoding="utf-8"?>
<svg xmlns="http://www.w3.org/2000/svg" viewBox="0 0 16 16" fill="#ffffff"><path d="M 5 3 C 3.617188 3 2.585938 3.574219 1.941406 4.289063 C 1.296875 5.007813 1 5.832031 1 6.5 L 1 11.25 C 1 12.210938 1.789063 13 2.75 13 L 5.25 13 C 6.210938 13 7 12.210938 7 11.25 L 7 8.75 C 7 7.789063 6.210938 7 5.25 7 L 2.75 7 C 2.480469 7 2.230469 7.066406 2 7.179688 L 2 6.5 C 2 6.167969 2.203125 5.492188 2.683594 4.960938 C 3.164063 4.425781 3.882813 4 5 4 Z M 13 3 C 11.617188 3 10.585938 3.574219 9.941406 4.289063 C 9.296875 5.007813 9 5.832031 9 6.5 L 9 11.25 C 9 12.210938 9.789063 13 10.75 13 L 13.25 13 C 14.210938 13 15 12.210938 15 11.25 L 15 8.75 C 15 7.789063 14.210938 7 13.25 7 L 10.75 7 C 10.480469 7 10.230469 7.066406 10 7.179688 L 10 6.5 C 10 6.167969 10.203125 5.492188 10.683594 4.960938 C 11.164063 4.425781 11.882813 4 13 4 Z M 2.75 8 L 5.25 8 C 5.667969 8 6 8.332031 6 8.75 L 6 11.25 C 6 11.667969 5.667969 12 5.25 12 L 2.75 12 C 2.332031 12 2 11.667969 2 11.25 L 2 8.75 C 2 8.332031 2.332031 8 2.75 8 Z M 10.75 8 L 13.25 8 C 13.667969 8 14 8.332031 14 8.75 L 14 11.25 C 14 11.667969 13.667969 12 13.25 12 L 10.75 12 C 10.332031 12 10 11.667969 10 11.25 L 10 8.75 C 10 8.332031 10.332031 8 10.75 8 Z" fill="#ffffff"/></svg>
