<?xml version="1.0" encoding="utf-8"?>
<svg xmlns="http://www.w3.org/2000/svg" viewBox="0 0 16 16" fill="#111111"><path d="M 9 1 C 8.460938 1 7.949219 1.1875 7.578125 1.546875 C 7.210938 1.902344 7 2.421875 7 3 L 7 4.046875 C 5.503906 4.132813 4.148438 4.59375 3.101563 5.335938 C 2.792969 5.148438 2.449219 5.035156 2.101563 5.011719 C 1.515625 4.972656 0.902344 5.148438 0.484375 5.613281 L 0.476563 5.625 L 0.46875 5.632813 C 0.0820313 6.117188 -0.0742188 6.769531 0.03125 7.414063 C 0.121094 7.984375 0.453125 8.542969 1.007813 8.933594 C 1.003906 8.960938 1 8.984375 1 9.007813 C 1 10.425781 1.769531 11.699219 2.949219 12.589844 C 4.128906 13.476563 5.730469 14.011719 7.5 14.011719 C 9.269531 14.011719 10.871094 13.476563 12.050781 12.589844 C 13.230469 11.699219 14 10.425781 14 9.007813 C 14 8.984375 13.996094 8.960938 13.996094 8.933594 C 14.546875 8.542969 14.878906 7.984375 14.96875 7.417969 C 15.074219 6.769531 14.917969 6.117188 14.53125 5.632813 L 14.519531 5.625 L 14.515625 5.613281 C 14.101563 5.148438 13.488281 4.972656 12.90625 5.007813 C 12.554688 5.03125 12.207031 5.148438 11.902344 5.335938 C 10.851563 4.59375 9.496094 4.132813 8 4.046875 L 8 3 C 8 2.65625 8.109375 2.425781 8.277344 2.265625 C 8.445313 2.101563 8.683594 2 9 2 C 9.234375 2 9.582031 2.1875 10.121094 2.449219 C 10.660156 2.710938 11.390625 3 12.375 3 L 13 3 C 13.550781 3 14 2.550781 14 2 C 14 1.449219 13.550781 1 13 1 C 12.460938 1 12.019531 1.4375 12.003906 1.976563 C 11.410156 1.921875 10.964844 1.75 10.558594 1.550781 C 10.070313 1.3125 9.621094 1 9 1 Z M 7.5 5.007813 C 9.066406 5.007813 10.464844 5.488281 11.449219 6.230469 C 12.433594 6.972656 13 7.953125 13 9.007813 C 13 10.066406 12.433594 11.046875 11.449219 11.789063 C 10.464844 12.53125 9.066406 13.011719 7.5 13.011719 C 5.933594 13.011719 4.535156 12.53125 3.550781 11.789063 C 2.566406 11.046875 2 10.066406 2 9.007813 C 2 7.953125 2.566406 6.972656 3.550781 6.230469 C 4.535156 5.488281 5.933594 5.007813 7.5 5.007813 Z M 12.96875 6.007813 C 13.296875 5.988281 13.59375 6.101563 13.753906 6.273438 C 13.933594 6.503906 14.042969 6.890625 13.984375 7.257813 C 13.953125 7.4375 13.890625 7.609375 13.789063 7.765625 C 13.582031 7.140625 13.226563 6.566406 12.753906 6.0625 C 12.828125 6.046875 12.894531 6.011719 12.96875 6.007813 Z M 2.03125 6.007813 C 2.105469 6.015625 2.171875 6.046875 2.242188 6.066406 C 1.773438 6.566406 1.417969 7.140625 1.210938 7.765625 C 1.109375 7.609375 1.046875 7.4375 1.015625 7.257813 C 0.957031 6.886719 1.066406 6.503906 1.246094 6.273438 C 1.40625 6.101563 1.703125 5.988281 2.03125 6.007813 Z M 5 7 C 4.449219 7 4 7.449219 4 8 C 4 8.550781 4.449219 9 5 9 C 5.550781 9 6 8.550781 6 8 C 6 7.449219 5.550781 7 5 7 Z M 10 7 C 9.449219 7 9 7.449219 9 8 C 9 8.550781 9.449219 9 10 9 C 10.550781 9 11 8.550781 11 8 C 11 7.449219 10.550781 7 10 7 Z M 5 10 C 5.285156 10.929688 6.355469 12 7.5 12 C 8.644531 12 9.714844 11 10 10 C 9.484375 10.570313 8.472656 11 7.5 11 C 6.527344 11 5.515625 10.5 5 10 Z" fill="#111111"/></svg>
