<?xml version="1.0" encoding="UTF-8"?>
<svg xmlns="http://www.w3.org/2000/svg" xmlns:xlink="http://www.w3.org/1999/xlink" width="16pt" height="16pt" viewBox="0 0 16 16" version="1.1">
<g id="surface4587">
<path style="fill:none;stroke-width:1;stroke-linecap:butt;stroke-linejoin:round;stroke:rgb(0%,0%,0%);stroke-opacity:1;stroke-miterlimit:10;" d="M 1.5 7.5 L 7.5 7.5 L 7.5 13.5 L 1.5 13.5 Z M 1.5 7.5 "/>
<path style=" stroke:none;fill-rule:nonzero;fill:rgb(0%,0%,0%);fill-opacity:1;" d="M 1.5 1 C 1.222656 1 1 1.222656 1 1.5 C 1 1.777344 1.222656 2 1.5 2 C 1.777344 2 2 1.777344 2 1.5 C 2 1.222656 1.777344 1 1.5 1 Z M 1.5 3 C 1.222656 3 1 3.222656 1 3.5 C 1 3.777344 1.222656 4 1.5 4 C 1.777344 4 2 3.777344 2 3.5 C 2 3.222656 1.777344 3 1.5 3 Z M 1.5 5 C 1.222656 5 1 5.222656 1 5.5 C 1 5.777344 1.222656 6 1.5 6 C 1.777344 6 2 5.777344 2 5.5 C 2 5.222656 1.777344 5 1.5 5 Z M 3.5 1 C 3.222656 1 3 1.222656 3 1.5 C 3 1.777344 3.222656 2 3.5 2 C 3.777344 2 4 1.777344 4 1.5 C 4 1.222656 3.777344 1 3.5 1 Z M 5.5 1 C 5.222656 1 5 1.222656 5 1.5 C 5 1.777344 5.222656 2 5.5 2 C 5.777344 2 6 1.777344 6 1.5 C 6 1.222656 5.777344 1 5.5 1 Z M 7.5 1 C 7.222656 1 7 1.222656 7 1.5 C 7 1.777344 7.222656 2 7.5 2 C 7.777344 2 8 1.777344 8 1.5 C 8 1.222656 7.777344 1 7.5 1 Z M 9.5 1 C 9.222656 1 9 1.222656 9 1.5 C 9 1.777344 9.222656 2 9.5 2 C 9.777344 2 10 1.777344 10 1.5 C 10 1.222656 9.777344 1 9.5 1 Z M 11.5 1 C 11.222656 1 11 1.222656 11 1.5 C 11 1.777344 11.222656 2 11.5 2 C 11.777344 2 12 1.777344 12 1.5 C 12 1.222656 11.777344 1 11.5 1 Z M 13.5 1 C 13.222656 1 13 1.222656 13 1.5 C 13 1.777344 13.222656 2 13.5 2 C 13.777344 2 14 1.777344 14 1.5 C 14 1.222656 13.777344 1 13.5 1 Z M 13.5 3 C 13.222656 3 13 3.222656 13 3.5 C 13 3.777344 13.222656 4 13.5 4 C 13.777344 4 14 3.777344 14 3.5 C 14 3.222656 13.777344 3 13.5 3 Z M 13.5 5 C 13.222656 5 13 5.222656 13 5.5 C 13 5.777344 13.222656 6 13.5 6 C 13.777344 6 14 5.777344 14 5.5 C 14 5.222656 13.777344 5 13.5 5 Z M 13.5 7 C 13.222656 7 13 7.222656 13 7.5 C 13 7.777344 13.222656 8 13.5 8 C 13.777344 8 14 7.777344 14 7.5 C 14 7.222656 13.777344 7 13.5 7 Z M 13.5 9 C 13.222656 9 13 9.222656 13 9.5 C 13 9.777344 13.222656 10 13.5 10 C 13.777344 10 14 9.777344 14 9.5 C 14 9.222656 13.777344 9 13.5 9 Z M 13.5 11 C 13.222656 11 13 11.222656 13 11.5 C 13 11.777344 13.222656 12 13.5 12 C 13.777344 12 14 11.777344 14 11.5 C 14 11.222656 13.777344 11 13.5 11 Z M 11.5 13 C 11.222656 13 11 13.222656 11 13.5 C 11 13.777344 11.222656 14 11.5 14 C 11.777344 14 12 13.777344 12 13.5 C 12 13.222656 11.777344 13 11.5 13 Z M 13.5 13 C 13.222656 13 13 13.222656 13 13.5 C 13 13.777344 13.222656 14 13.5 14 C 13.777344 14 14 13.777344 14 13.5 C 14 13.222656 13.777344 13 13.5 13 Z M 9.5 13 C 9.222656 13 9 13.222656 9 13.5 C 9 13.777344 9.222656 14 9.5 14 C 9.777344 14 10 13.777344 10 13.5 C 10 13.222656 9.777344 13 9.5 13 Z M 9.5 13 "/>
<path style="fill:none;stroke-width:1;stroke-linecap:butt;stroke-linejoin:miter;stroke:rgb(0%,0%,0%);stroke-opacity:1;stroke-miterlimit:10;" d="M 10 5 L 7.375 7.625 "/>
<path style=" stroke:none;fill-rule:nonzero;fill:rgb(0%,0%,0%);fill-opacity:1;" d="M 11 7.535156 L 11 4 L 7.464844 4 Z M 11 7.535156 "/>
</g>
</svg>
