<?xml version="1.0" encoding="utf-8"?>
<svg xmlns="http://www.w3.org/2000/svg" viewBox="0 0 16 16" fill="#ffffff"><path d="M 7.5 1 C 6.851563 1 6.300781 1.421875 6.09375 2 L 3.5 2 C 2.675781 2 2 2.675781 2 3.5 L 2 12.5 C 2 13.324219 2.675781 14 3.5 14 L 11.5 14 C 12.324219 14 13 13.324219 13 12.5 L 13 3.5 C 13 2.675781 12.324219 2 11.5 2 L 8.90625 2 C 8.699219 1.421875 8.148438 1 7.5 1 Z M 7.5 2 C 7.78125 2 8 2.21875 8 2.5 L 8 3 L 9 3 L 9 4 L 6 4 L 6 3 L 7 3 L 7 2.5 C 7 2.21875 7.21875 2 7.5 2 Z M 3.5 3 L 5 3 L 5 5 L 10 5 L 10 3 L 11.5 3 C 11.78125 3 12 3.21875 12 3.5 L 12 12.5 C 12 12.78125 11.78125 13 11.5 13 L 3.5 13 C 3.21875 13 3 12.78125 3 12.5 L 3 3.5 C 3 3.21875 3.21875 3 3.5 3 Z M 7.5 6 C 6.675781 6 6 6.675781 6 7.5 C 6 7.980469 6.234375 8.402344 6.585938 8.679688 C 5.660156 9.046875 5 9.949219 5 11 L 6 11 C 6 10.164063 6.664063 9.5 7.5 9.5 C 8.335938 9.5 9 10.164063 9 11 L 10 11 C 10 9.949219 9.339844 9.046875 8.414063 8.679688 C 8.765625 8.402344 9 7.980469 9 7.5 C 9 6.675781 8.324219 6 7.5 6 Z M 7.5 7 C 7.78125 7 8 7.21875 8 7.5 C 8 7.78125 7.78125 8 7.5 8 C 7.21875 8 7 7.78125 7 7.5 C 7 7.21875 7.21875 7 7.5 7 Z" fill="#ffffff"/></svg>
