<?xml version="1.0" encoding="UTF-8"?>
<svg xmlns="http://www.w3.org/2000/svg" xmlns:xlink="http://www.w3.org/1999/xlink" width="16pt" height="16pt" viewBox="0 0 16 16" version="1.1">
<g id="surface1267">
<path style="fill:none;stroke-width:1;stroke-linecap:butt;stroke-linejoin:miter;stroke:rgb(0%,0%,0%);stroke-opacity:1;stroke-miterlimit:10;" d="M 9.5 3.5 L 5.5 3.5 L 5.5 3 C 5.5 2.171875 6.171875 1.5 7 1.5 L 8 1.5 C 8.828125 1.5 9.5 2.171875 9.5 3 Z M 2.5 3.5 L 2.5 4.5 C 2.5 6.15625 4.738281 7.5 7.5 7.5 C 10.261719 7.5 12.5 6.15625 12.5 4.5 L 12.5 3.5 Z M 9.5 6 L 9.5 9 M 5.5 6 L 5.5 9 "/>
<path style="fill:none;stroke-width:1;stroke-linecap:butt;stroke-linejoin:miter;stroke:rgb(0%,0%,0%);stroke-opacity:1;stroke-miterlimit:10;" d="M 7.5 13.5 L 4.75 13.5 C 2.953125 13.5 1.5 11.933594 1.5 10 C 1.5 8.234375 2.09375 6.6875 2.988281 5.796875 M 7.5 13.5 L 10.25 13.5 C 12.046875 13.5 13.5 11.933594 13.5 10 C 13.5 8.234375 12.90625 6.6875 12.011719 5.796875 "/>
</g>
</svg>
