<?xml version="1.0" encoding="UTF-8"?>
<svg xmlns="http://www.w3.org/2000/svg" xmlns:xlink="http://www.w3.org/1999/xlink" width="16pt" height="16pt" viewBox="0 0 16 16" version="1.1">
<g id="surface3803">
<path style="fill:none;stroke-width:1;stroke-linecap:butt;stroke-linejoin:miter;stroke:rgb(0%,0%,0%);stroke-opacity:1;stroke-miterlimit:10;" d="M 1.507812 4.5 C 0.953125 4.5 0.5 4.949219 0.5 5.5 C 0.5 6.050781 0.953125 6.5 1.507812 6.5 C 2.066406 6.5 2.519531 6.050781 2.519531 5.5 C 2.519531 4.949219 2.066406 4.5 1.507812 4.5 Z M 13.617188 2.5 C 13.058594 2.5 12.605469 2.949219 12.605469 3.5 C 12.605469 4.050781 13.058594 4.5 13.617188 4.5 C 14.171875 4.5 14.625 4.050781 14.625 3.5 C 14.625 2.949219 14.171875 2.5 13.617188 2.5 Z M 12.125 8.125 L 13.625 9.625 M 3.625 9.75 L 2.5 11.75 M 8 7.519531 C 7.171875 7.519531 6.5 8.175781 6.5 8.984375 C 6.5 9.789062 7.171875 10.445312 8 10.445312 C 8.828125 10.445312 9.5 9.789062 9.5 8.984375 C 9.5 8.175781 8.828125 7.519531 8 7.519531 Z M 8 7.519531 "/>
<path style=" stroke:none;fill-rule:nonzero;fill:rgb(0%,0%,0%);fill-opacity:1;" d="M 14.957031 4.414062 C 14.578125 4.082031 14.113281 3.941406 13.613281 4.003906 C 13.125 4.066406 12.035156 4.480469 12.011719 6.714844 L 13.003906 6.539062 C 13.042969 5.628906 13.3125 5.050781 13.742188 4.996094 C 13.957031 4.964844 14.132812 5.019531 14.296875 5.164062 C 14.671875 5.492188 14.929688 6.265625 14.988281 7.199219 L 13.96875 7.382812 L 9.078125 8.253906 L 9.253906 9.238281 L 14.199219 8.355469 L 16 8.035156 L 16 7.617188 C 16 6.929688 15.898438 5.242188 14.957031 4.414062 Z M 6.605469 8.699219 L 2.597656 9.464844 L 1.007812 9.769531 C 1.085938 7.222656 1.640625 7.082031 1.84375 7.027344 C 2.554688 6.917969 2.894531 8.023438 2.984375 8.371094 L 3.964844 8.183594 C 3.703125 7.054688 2.964844 5.847656 1.648438 6.046875 C 0.460938 6.347656 0 7.558594 0 10.375 L 0 10.980469 L 6.792969 9.679688 Z M 6.605469 8.699219 "/>
<path style="fill:none;stroke-width:1;stroke-linecap:butt;stroke-linejoin:round;stroke:rgb(0%,0%,0%);stroke-opacity:1;stroke-miterlimit:10;" d="M 7.410156 10.375 L 6.5 12.5 L 9.5 12.5 L 8.589844 10.375 "/>
</g>
</svg>
