<?xml version="1.0" encoding="utf-8"?>
<!-- Generator: Adobe Illustrator 25.2.3, SVG Export Plug-In . SVG Version: 6.00 Build 0)  -->
<svg version="1.1" id="Layer_1" xmlns="http://www.w3.org/2000/svg" xmlns:xlink="http://www.w3.org/1999/xlink" x="0px" y="0px"
	 viewBox="0 0 16 16" style="enable-background:new 0 0 16 16;" xml:space="preserve">
<style type="text/css">
	.st0{fill:#111111;}
</style>
<path class="st0" d="M6.5,2C6.4,2,6.4,2,6.3,2l-4,1.5C2.1,3.6,2,3.8,2,4v2.5C2,6.8,2.2,7,2.5,7H4v6.5C4,13.8,4.2,14,4.5,14h7
	c0.3,0,0.5-0.2,0.5-0.5V7h1.5C13.8,7,14,6.8,14,6.5V4c0-0.2-0.1-0.4-0.3-0.5L9.7,2C9.6,2,9.6,2,9.5,2H6.5z M7,3h2c0,0,0,0.3-0.1,0.5
	C8.7,3.8,8.6,4,8,4S7.3,3.8,7.2,3.5C7,3.3,7,3,7,3z M6,3.2C6,3.4,6.1,3.7,6.3,4C6.5,4.5,7.1,5,8,5s1.5-0.5,1.7-1
	C9.9,3.7,10,3.4,10,3.2l3,1.1V6h-1.5C11.2,6,11,6.2,11,6.5V13H5V6.5C5,6.2,4.8,6,4.5,6H3V4.3L6,3.2z"/>
</svg>
