<?xml version="1.0" encoding="utf-8"?>
<svg xmlns="http://www.w3.org/2000/svg" viewBox="0 0 16 16" fill="#ffffff"><path d="M 6.5 2 A 0.50005 0.50005 0 0 0 6.3242188 2.03125 L 2.3242188 3.53125 A 0.50005 0.50005 0 0 0 2 4 L 2 6.5 A 0.50005 0.50005 0 0 0 2.5 7 L 4 7 L 4 13.5 A 0.50005 0.50005 0 0 0 4.5 14 L 11.5 14 A 0.50005 0.50005 0 0 0 12 13.5 L 12 7 L 13.5 7 A 0.50005 0.50005 0 0 0 14 6.5 L 14 4 A 0.50005 0.50005 0 0 0 13.675781 3.53125 L 9.6757812 2.03125 A 0.50005 0.50005 0 0 0 9.5 2 L 6.5 2 z M 7.0019531 3 L 8.9980469 3 C 8.9964864 3.0235035 8.9783527 3.2718204 8.8496094 3.5214844 C 8.7146847 3.7831329 8.5544422 4 8 4 C 7.4455578 4 7.2853153 3.7831354 7.1503906 3.5214844 C 7.0216472 3.2718204 7.0035135 3.0235035 7.0019531 3 z M 6.0234375 3.2128906 C 6.0441731 3.389135 6.0910702 3.6513755 6.2597656 3.9785156 C 6.5115909 4.4668671 7.1014422 5 8 5 C 8.8985578 5 9.4884091 4.4668646 9.7402344 3.9785156 C 9.9089296 3.6513755 9.9558268 3.389135 9.9765625 3.2128906 L 13 4.3476562 L 13 6 L 11.5 6 A 0.50005 0.50005 0 0 0 11 6.5 L 11 13 L 5 13 L 5 6.5 A 0.50005 0.50005 0 0 0 4.5 6 L 3 6 L 3 4.3457031 L 6.0234375 3.2128906 z" fill="#ffffff"/></svg>
