<?xml version="1.0" encoding="UTF-8"?>
<svg xmlns="http://www.w3.org/2000/svg" xmlns:xlink="http://www.w3.org/1999/xlink" width="16pt" height="16pt" viewBox="0 0 16 16" version="1.1">
<g id="surface3212">
<path style="fill:none;stroke-width:1;stroke-linecap:butt;stroke-linejoin:miter;stroke:rgb(0%,0%,0%);stroke-opacity:1;stroke-miterlimit:10;" d="M 2 2.5 L 10 2.5 M 11 2.5 L 14 2.5 M 10.5 1.5 C 9.949219 1.5 9.5 1.949219 9.5 2.5 C 9.5 3.050781 9.949219 3.5 10.5 3.5 C 11.050781 3.5 11.5 3.050781 11.5 2.5 C 11.5 1.949219 11.050781 1.5 10.5 1.5 Z M 2 7.5 L 5 7.5 M 6 7.5 L 14 7.5 M 5.5 6.5 C 4.949219 6.5 4.5 6.949219 4.5 7.5 C 4.5 8.050781 4.949219 8.5 5.5 8.5 C 6.050781 8.5 6.5 8.050781 6.5 7.5 C 6.5 6.949219 6.050781 6.5 5.5 6.5 Z M 2 12.5 L 10 12.5 M 11 12.5 L 14 12.5 M 10.5 11.5 C 9.949219 11.5 9.5 11.949219 9.5 12.5 C 9.5 13.050781 9.949219 13.5 10.5 13.5 C 11.050781 13.5 11.5 13.050781 11.5 12.5 C 11.5 11.949219 11.050781 11.5 10.5 11.5 Z M 10.5 11.5 "/>
</g>
</svg>
