<?xml version="1.0" encoding="utf-8"?>
<!-- Generator: Adobe Illustrator 25.2.3, SVG Export Plug-In . SVG Version: 6.00 Build 0)  -->
<svg version="1.1" id="Layer_1" xmlns="http://www.w3.org/2000/svg" xmlns:xlink="http://www.w3.org/1999/xlink" x="0px" y="0px"
	 viewBox="0 0 16 16" style="enable-background:new 0 0 16 16;" xml:space="preserve">
<style type="text/css">
	.st0{fill:#111111;}
</style>
<path class="st0" d="M7,1v3.1C6.4,4.1,5.9,4.4,5.4,4.7L3.3,2.6L2.6,3.3l2.2,2.2C4.4,5.9,4.1,6.4,4,7H1v1h3c0.1,0.6,0.3,1.1,0.7,1.6
	l-2.2,2.2l0.7,0.7l2.2-2.2c0.5,0.3,1,0.6,1.6,0.7V14h1v-3.1c0.6-0.1,1.1-0.3,1.6-0.7l2.2,2.2l0.7-0.7l-2.2-2.2
	c0.3-0.5,0.6-1,0.7-1.6h3V7h-3c-0.1-0.6-0.3-1.1-0.7-1.6l2.2-2.2l-0.7-0.7L9.6,4.7C9.1,4.4,8.6,4.1,8,4.1V1H7z M7.5,5
	C8.9,5,10,6.1,10,7.5S8.9,10,7.5,10S5,8.9,5,7.5S6.1,5,7.5,5z"/>
</svg>
