<?xml version="1.0" encoding="utf-8"?>
<!-- Generator: Adobe Illustrator 25.2.3, SVG Export Plug-In . SVG Version: 6.00 Build 0)  -->
<svg version="1.1" id="Layer_1" xmlns="http://www.w3.org/2000/svg" xmlns:xlink="http://www.w3.org/1999/xlink" x="0px" y="0px"
	 viewBox="0 0 16 16" style="enable-background:new 0 0 16 16;" xml:space="preserve">
<style type="text/css">
	.st0{fill:#111111;}
</style>
<path class="st0" d="M2.5,2C1.7,2,1,2.7,1,3.5v8C1,12.3,1.7,13,2.5,13H4v2.4L7.7,13h4.8c0.8,0,1.5-0.7,1.5-1.5v-8
	C14,2.7,13.3,2,12.5,2H2.5z M2.5,3h10C12.8,3,13,3.2,13,3.5v8c0,0.3-0.2,0.5-0.5,0.5H7.3L5,13.6V12H2.5C2.2,12,2,11.8,2,11.5v-8
	C2,3.2,2.2,3,2.5,3z"/>
</svg>
