<?xml version="1.0" encoding="UTF-8"?>
<svg xmlns="http://www.w3.org/2000/svg" xmlns:xlink="http://www.w3.org/1999/xlink" width="16pt" height="16pt" viewBox="0 0 16 16" version="1.1">
<g id="surface5149">
<path style="fill:none;stroke-width:1;stroke-linecap:butt;stroke-linejoin:round;stroke:rgb(0%,0%,0%);stroke-opacity:1;stroke-miterlimit:10;" d="M 11 13.5 C 10 13.5 9.5 13.5 9.5 12.5 C 9.5 11.613281 9.5 10.5 9.5 10.5 C 9.769531 10.90625 9.976562 11.5 10.5 11.5 C 11.15625 11.5 11.707031 11.078125 11.910156 10.492188 C 11.941406 10.492188 11.96875 10.5 12 10.5 C 12.828125 10.5 13.5 9.828125 13.5 9 C 13.5 8.613281 13.351562 8.265625 13.109375 8 C 13.351562 7.734375 13.5 7.386719 13.5 7 C 13.5 6.34375 13.078125 5.792969 12.492188 5.589844 C 12.492188 5.558594 12.5 5.53125 12.5 5.5 C 12.5 4.671875 11.828125 4 11 4 C 10.96875 4 10.941406 4.007812 10.910156 4.007812 C 10.707031 3.421875 10.15625 3 9.5 3 C 9.378906 3 9.261719 3.019531 9.148438 3.046875 C 8.871094 2.714844 8.464844 2.5 8 2.5 C 7.535156 2.5 7.128906 2.714844 6.851562 3.046875 C 6.738281 3.019531 6.621094 3 6.5 3 C 5.84375 3 5.292969 3.421875 5.089844 4.007812 C 5.058594 4.007812 5.03125 4 5 4 C 4.171875 4 3.5 4.671875 3.5 5.5 C 3.5 5.53125 3.507812 5.558594 3.507812 5.589844 C 2.921875 5.792969 2.5 6.34375 2.5 7 C 2.5 7.386719 2.648438 7.734375 2.890625 8 C 2.648438 8.265625 2.5 8.613281 2.5 9 C 2.5 9.828125 3.171875 10.5 4 10.5 C 4.03125 10.5 4.058594 10.492188 4.089844 10.492188 C 4.292969 11.078125 4.84375 11.5 5.5 11.5 C 6.023438 11.5 6.230469 10.90625 6.5 10.5 C 6.5 10.5 6.5 11.613281 6.5 12.5 C 6.5 13.5 6 13.5 5 13.5 "/>
<path style="fill:none;stroke-width:1;stroke-linecap:butt;stroke-linejoin:round;stroke:rgb(0%,0%,0%);stroke-opacity:1;stroke-miterlimit:10;" d="M 6.5 11.421875 L 6.5 9 "/>
<path style="fill:none;stroke-width:1;stroke-linecap:butt;stroke-linejoin:round;stroke:rgb(0%,0%,0%);stroke-opacity:1;stroke-miterlimit:10;" d="M 9.5 11.421875 L 9.5 9 "/>
</g>
</svg>
