<?xml version="1.0" encoding="UTF-8"?>
<svg xmlns="http://www.w3.org/2000/svg" xmlns:xlink="http://www.w3.org/1999/xlink" width="16pt" height="16pt" viewBox="0 0 16 16" version="1.1">
<g id="surface3449">
<path style="fill:none;stroke-width:1;stroke-linecap:butt;stroke-linejoin:miter;stroke:rgb(0%,0%,0%);stroke-opacity:1;stroke-miterlimit:10;" d="M 11.5 5 L 11.5 1.5 L 3.5 1.5 L 3.5 5 "/>
<path style="fill:none;stroke-width:1;stroke-linecap:butt;stroke-linejoin:round;stroke:rgb(0%,0%,0%);stroke-opacity:1;stroke-miterlimit:10;" d="M 12.5 7.5 L 14 7.5 M 1 7.5 L 2.5 7.5 "/>
<path style="fill:none;stroke-width:1;stroke-linecap:butt;stroke-linejoin:miter;stroke:rgb(0%,0%,0%);stroke-opacity:1;stroke-miterlimit:10;" d="M 7 6.5 L 2.5 6.5 L 2.5 12.5 C 2.5 13.050781 2.949219 13.5 3.5 13.5 L 11.5 13.5 C 12.050781 13.5 12.5 13.050781 12.5 12.5 L 12.5 6.5 L 8 6.5 M 9.5 6.75 L 9.5 8.5 L 5.5 8.5 L 5.5 6.75 "/>
<path style=" stroke:none;fill-rule:nonzero;fill:rgb(0%,0%,0%);fill-opacity:1;" d="M 4.507812 10 C 4.234375 10 4.015625 10.222656 4.015625 10.5 C 4.015625 10.777344 4.234375 11 4.507812 11 C 4.777344 11 5 10.777344 5 10.5 C 5 10.222656 4.777344 10 4.507812 10 Z M 6.492188 10 C 6.222656 10 6 10.222656 6 10.5 C 6 10.777344 6.222656 11 6.492188 11 C 6.765625 11 6.984375 10.777344 6.984375 10.5 C 6.984375 10.222656 6.765625 10 6.492188 10 Z M 8.492188 10 C 8.222656 10 8 10.222656 8 10.5 C 8 10.777344 8.222656 11 8.492188 11 C 8.765625 11 8.984375 10.777344 8.984375 10.5 C 8.984375 10.222656 8.765625 10 8.492188 10 Z M 10.492188 10 C 10.222656 10 10 10.222656 10 10.5 C 10 10.777344 10.222656 11 10.492188 11 C 10.765625 11 10.984375 10.777344 10.984375 10.5 C 10.984375 10.222656 10.765625 10 10.492188 10 Z M 5.492188 11 C 5.222656 11 5 11.222656 5 11.5 C 5 11.777344 5.222656 12 5.492188 12 C 5.765625 12 5.984375 11.777344 5.984375 11.5 C 5.984375 11.222656 5.765625 11 5.492188 11 Z M 7.507812 11 C 7.234375 11 7.015625 11.222656 7.015625 11.5 C 7.015625 11.777344 7.234375 12 7.507812 12 C 7.777344 12 8 11.777344 8 11.5 C 8 11.222656 7.777344 11 7.507812 11 Z M 9.507812 11 C 9.234375 11 9.015625 11.222656 9.015625 11.5 C 9.015625 11.777344 9.234375 12 9.507812 12 C 9.777344 12 10 11.777344 10 11.5 C 10 11.222656 9.777344 11 9.507812 11 Z M 9.507812 11 "/>
<path style="fill:none;stroke-width:1;stroke-linecap:butt;stroke-linejoin:miter;stroke:rgb(0%,0%,0%);stroke-opacity:1;stroke-miterlimit:10;" d="M 5 3.5 L 10 3.5 "/>
</g>
</svg>
