<?xml version="1.0" encoding="utf-8"?>
<svg xmlns="http://www.w3.org/2000/svg" viewBox="0 0 16 16" fill="#111111"><path d="M 7.5 1 C 3.917969 1 1 3.917969 1 7.5 C 1 11.082031 3.917969 14 7.5 14 C 11.082031 14 14 11.082031 14 7.5 C 14 3.917969 11.082031 1 7.5 1 Z M 7.5 2 C 10.542969 2 13 4.457031 13 7.5 C 13 8.839844 12.523438 10.0625 11.734375 11.015625 C 11.304688 9.796875 10.375 8.816406 9.1875 8.332031 C 9.683594 7.875 10 7.222656 10 6.5 C 10 5.125 8.875 4 7.5 4 C 6.125 4 5 5.125 5 6.5 C 5 7.222656 5.316406 7.875 5.8125 8.332031 C 4.625 8.816406 3.699219 9.796875 3.269531 11.015625 C 2.476563 10.0625 2 8.839844 2 7.5 C 2 4.457031 4.457031 2 7.5 2 Z M 7.5 5 C 8.335938 5 9 5.664063 9 6.5 C 9 7.335938 8.335938 8 7.5 8 C 6.664063 8 6 7.335938 6 6.5 C 6 5.664063 6.664063 5 7.5 5 Z M 7.5 9 C 9.199219 9 10.59375 10.207031 10.917969 11.808594 C 9.976563 12.554688 8.792969 13 7.5 13 C 6.207031 13 5.023438 12.554688 4.085938 11.808594 C 4.40625 10.207031 5.800781 9 7.5 9 Z" fill="#111111"/></svg>
