<?xml version="1.0" encoding="utf-8"?>
<svg xmlns="http://www.w3.org/2000/svg" viewBox="0 0 16 16" fill="#111111"><path d="M 7.5 1 C 6.570313 1 5.808594 1.511719 5.3125 2.21875 C 4.464844 2.070313 3.558594 2.246094 2.90625 2.902344 L 2.90625 2.90625 L 2.902344 2.90625 C 2.246094 3.558594 2.070313 4.464844 2.21875 5.3125 C 1.511719 5.808594 1 6.570313 1 7.5 C 1 8.429688 1.511719 9.191406 2.21875 9.6875 C 2.070313 10.535156 2.246094 11.4375 2.90625 12.09375 C 3.558594 12.75 4.460938 12.929688 5.3125 12.78125 C 5.808594 13.488281 6.570313 14 7.5 14 C 8.429688 14 9.191406 13.488281 9.6875 12.78125 C 10.535156 12.929688 11.4375 12.753906 12.09375 12.09375 C 12.75 11.441406 12.929688 10.539063 12.78125 9.6875 C 13.488281 9.191406 14 8.429688 14 7.5 C 14 6.570313 13.488281 5.808594 12.78125 5.3125 C 12.929688 4.464844 12.753906 3.5625 12.09375 2.90625 L 12.09375 2.902344 C 11.441406 2.246094 10.535156 2.070313 9.6875 2.21875 C 9.191406 1.511719 8.429688 1 7.5 1 Z M 7.5 2 C 8.175781 2 8.746094 2.382813 9.039063 2.945313 L 9.234375 3.3125 L 9.632813 3.1875 C 10.238281 3 10.910156 3.136719 11.390625 3.609375 C 11.867188 4.089844 12 4.761719 11.8125 5.367188 L 11.6875 5.765625 L 12.058594 5.960938 C 12.617188 6.253906 13 6.824219 13 7.5 C 13 8.175781 12.617188 8.746094 12.058594 9.039063 L 11.6875 9.234375 L 11.8125 9.632813 C 12 10.238281 11.867188 10.910156 11.390625 11.390625 C 10.910156 11.867188 10.238281 12 9.632813 11.8125 L 9.234375 11.6875 L 9.039063 12.058594 C 8.746094 12.617188 8.175781 13 7.5 13 C 6.824219 13 6.253906 12.617188 5.960938 12.058594 L 5.765625 11.6875 L 5.367188 11.8125 C 4.761719 12 4.089844 11.867188 3.609375 11.390625 C 3.132813 10.910156 3 10.238281 3.1875 9.632813 L 3.3125 9.234375 L 2.945313 9.039063 C 2.382813 8.746094 2 8.175781 2 7.5 C 2 6.824219 2.382813 6.253906 2.945313 5.960938 L 3.3125 5.765625 L 3.1875 5.367188 C 3 4.761719 3.132813 4.085938 3.609375 3.609375 C 4.089844 3.132813 4.761719 3 5.367188 3.1875 L 5.765625 3.3125 L 5.960938 2.945313 C 6.253906 2.382813 6.824219 2 7.5 2 Z M 10.144531 5.148438 L 6.5 8.792969 L 4.851563 7.148438 L 4.148438 7.851563 L 6.5 10.207031 L 10.855469 5.851563 Z" fill="#111111"/></svg>
