<?xml version="1.0" encoding="utf-8"?>
<!-- Generator: Adobe Illustrator 25.2.3, SVG Export Plug-In . SVG Version: 6.00 Build 0)  -->
<svg version="1.1" id="Layer_1" xmlns="http://www.w3.org/2000/svg" xmlns:xlink="http://www.w3.org/1999/xlink" x="0px" y="0px"
	 viewBox="0 0 16 16" style="enable-background:new 0 0 16 16;" xml:space="preserve">
<style type="text/css">
	.st0{fill:#111111;}
</style>
<path class="st0" d="M10,1v1c0.2,0,0.5,0.1,0.7,0.3C11,2.5,11.1,2.8,11.1,3h1c0-0.5-0.3-1-0.7-1.4C11,1.2,10.5,1,10,1z M6.5,2
	C6.1,2,5.7,2.2,5.4,2.5C5.3,2.6,5.2,2.9,5.1,3.1C5,3,4.8,3,4.5,3C4.1,3,3.7,3.2,3.4,3.5c0,0-0.1,0.1-0.1,0.1
	C3.1,3.9,3.1,4.2,3.1,4.5c0,0.2,0,0.5,0.1,0.7C2.9,5.2,2.6,5.3,2.4,5.5c-0.6,0.6-0.6,1.6,0,2.2l5.2,5.2c0.1,0.1,0.2,0.1,0.1,0
	C8.2,13.6,9.1,14,10,14c0.6,0,1-0.2,1.5-0.5c0,0,0,0,0,0c0.1,0,0.1,0,0.2,0c0,0,0,0,0,0c0,0,0,0,0,0c0,0,0,0,0,0c0,0,0,0,0,0
	c0,0,0,0,0,0c0.5-0.5,1.3-1.3,1.9-2C14.5,10.4,15,9.3,15,8V6.5c0-0.4,0-0.9,0-1C15,4.7,14.3,4,13.5,4c-0.6,0-1.2,0.4-1.4,1v0
	c0,0,0,0,0,0.1c0,0,0,0,0,0l-0.3,1.4L7.6,2.5C7.3,2.2,6.9,2,6.5,2z M6.5,3c0.1,0,0.3,0.1,0.4,0.2l4.7,4.7C11.8,8,12,8,12.1,8
	c0.2-0.1,0.3-0.2,0.3-0.4L13,5.4c0,0,0,0.1,0,0c0,0,0,0,0,0C13.1,5.1,13.3,5,13.5,5C13.8,5,14,5.2,14,5.5c0,0.2,0,0.7,0,1
	c0,0,0,0,0,0V8c0,0,0,0,0,0c0,1-0.4,1.9-1,2.7c-0.6,0.7-1.3,1.4-1.8,1.9l0,0C10.8,12.8,10.4,13,10,13c-0.6,0-1.2-0.3-1.6-0.8
	c0,0,0-0.1-0.1-0.1c0,0-0.1,0-0.1-0.1L3.1,7c-0.2-0.2-0.2-0.6,0-0.8c0.2-0.2,0.6-0.2,0.8,0l2.7,2.7l0.7-0.7L4.7,5.5L4.1,5
	c-0.2-0.2-0.2-0.6,0-0.8C4.2,4.1,4.3,4.1,4.3,4C4.5,4,4.8,4,4.9,4.2l3.2,3.2l0.7-0.7L6.1,4c-0.2-0.2-0.2-0.6,0-0.8
	C6.3,3.1,6.4,3,6.5,3z M1,9c0,2.7,1.7,4.9,4.3,6L5.7,14C3.3,13.1,2,11.3,2,9H1z"/>
</svg>
