<?xml version="1.0" encoding="utf-8"?>
<svg xmlns="http://www.w3.org/2000/svg" viewBox="0 0 16 16" fill="#ffffff"><path d="M 10 1 L 10 2 C 10.238281 2 10.53125 2.125 10.746094 2.324219 C 10.957031 2.523438 11.078125 2.777344 11.078125 2.964844 L 12.078125 2.964844 C 12.078125 2.417969 11.800781 1.941406 11.421875 1.59375 C 11.046875 1.242188 10.546875 1 10 1 Z M 6.546875 2 C 6.144531 2.003906 5.746094 2.152344 5.445313 2.453125 C 5.257813 2.640625 5.203125 2.882813 5.148438 3.125 C 4.957031 3.042969 4.75 3 4.546875 3 C 4.144531 3.003906 3.746094 3.152344 3.445313 3.453125 C 3.402344 3.496094 3.371094 3.542969 3.347656 3.59375 C 3.148438 3.855469 3.066406 4.15625 3.082031 4.46875 C 3.050781 4.703125 3.0625 4.933594 3.140625 5.15625 C 2.886719 5.207031 2.636719 5.261719 2.445313 5.453125 C 1.835938 6.058594 1.835938 7.054688 2.445313 7.664063 L 7.632813 12.855469 C 7.773438 12.996094 7.796875 12.992188 7.683594 12.890625 C 8.230469 13.558594 9.054688 14 9.984375 14 C 10.542969 14 11.019531 13.761719 11.464844 13.5 C 11.46875 13.5 11.476563 13.5 11.484375 13.5 C 11.554688 13.5 11.621094 13.488281 11.683594 13.460938 C 11.695313 13.453125 11.710938 13.449219 11.726563 13.4375 C 11.742188 13.429688 11.753906 13.421875 11.769531 13.410156 C 11.78125 13.402344 11.796875 13.394531 11.808594 13.382813 C 11.820313 13.375 11.828125 13.367188 11.839844 13.359375 C 11.839844 13.355469 11.84375 13.351563 11.84375 13.347656 C 12.378906 12.824219 13.101563 12.082031 13.722656 11.375 C 14.542969 10.4375 15.019531 9.253906 15 7.992188 L 15 6.5 C 15.015625 6.148438 15 5.585938 15 5.5 C 15 4.675781 14.324219 4 13.5 4 C 12.851563 4 12.300781 4.421875 12.09375 4.996094 C 12.09375 4.996094 12.09375 5 12.09375 5 C 12.085938 5.011719 12.078125 5.019531 12.058594 5.09375 C 12.054688 5.101563 12.050781 5.109375 12.050781 5.117188 L 11.71875 6.515625 L 7.648438 2.453125 C 7.347656 2.152344 6.945313 2 6.546875 2 Z M 6.546875 3 C 6.691406 2.996094 6.832031 3.050781 6.945313 3.164063 L 11.644531 7.851563 C 11.773438 7.980469 11.960938 8.03125 12.136719 7.980469 C 12.3125 7.929688 12.445313 7.792969 12.484375 7.617188 L 13.019531 5.367188 C 13.007813 5.414063 12.988281 5.449219 13.019531 5.375 C 13.027344 5.359375 13.03125 5.347656 13.035156 5.335938 C 13.109375 5.136719 13.28125 5 13.5 5 C 13.78125 5 14 5.21875 14 5.5 C 14 5.667969 14.011719 6.226563 14 6.476563 C 14 6.484375 14 6.492188 14 6.5 L 14 8 C 14 8.003906 14 8.003906 14 8.007813 C 14.015625 9.011719 13.644531 9.941406 12.96875 10.714844 C 12.386719 11.375 11.703125 12.082031 11.191406 12.585938 L 11.1875 12.589844 C 10.84375 12.847656 10.4375 13 9.984375 13 C 9.339844 13 8.777344 12.691406 8.40625 12.210938 C 8.386719 12.183594 8.367188 12.160156 8.34375 12.140625 C 8.300781 12.105469 8.292969 12.097656 8.277344 12.082031 L 3.148438 6.953125 C 2.929688 6.734375 2.929688 6.382813 3.148438 6.164063 C 3.371094 5.941406 3.722656 5.941406 3.945313 6.164063 L 6.632813 8.851563 L 7.339844 8.148438 L 4.652344 5.457031 L 4.148438 4.953125 C 3.929688 4.734375 3.929688 4.382813 4.148438 4.164063 C 4.207031 4.105469 4.269531 4.066406 4.335938 4.039063 C 4.539063 3.957031 4.777344 3.996094 4.945313 4.164063 L 8.132813 7.351563 L 8.839844 6.648438 L 6.148438 3.953125 C 5.929688 3.734375 5.929688 3.382813 6.148438 3.164063 C 6.261719 3.050781 6.402344 3 6.546875 3 Z M 1 9 C 1 11.699219 2.664063 13.90625 5.3125 14.964844 L 5.6875 14.035156 C 3.335938 13.09375 2 11.300781 2 9 Z" fill="#ffffff"/></svg>
