<?xml version="1.0" encoding="utf-8"?>
<!-- Generator: Adobe Illustrator 25.2.3, SVG Export Plug-In . SVG Version: 6.00 Build 0)  -->
<svg version="1.1" id="Layer_1" xmlns="http://www.w3.org/2000/svg" xmlns:xlink="http://www.w3.org/1999/xlink" x="0px" y="0px"
	 viewBox="0 0 16 16" style="enable-background:new 0 0 16 16;" xml:space="preserve">
<style type="text/css">
	.st0{fill:#111111;}
</style>
<path class="st0" d="M7.5,1C3.9,1,1,3.9,1,7.5S3.9,14,7.5,14S14,11.1,14,7.5S11.1,1,7.5,1z M7.5,2c3,0,5.5,2.5,5.5,5.5
	S10.5,13,7.5,13S2,10.5,2,7.5S4.5,2,7.5,2z M5,5C4.4,5,4,5.5,4,6c0,0.6,0.4,1,1,1s1-0.4,1-1C6,5.5,5.6,5,5,5z M8,6v1h3V6H8z
	 M9.5,8.9c0,0-0.1,0.2-0.4,0.5C8.8,9.7,8.4,10,7.5,10c-0.9,0-1.4-0.3-1.7-0.6C5.5,9.2,5.5,9,5.5,9L4.5,9.3c0,0,0.2,0.5,0.6,0.9
	C5.6,10.6,6.4,11,7.5,11c1.1,0,1.9-0.4,2.3-0.8c0.5-0.4,0.6-0.9,0.6-0.9L9.5,8.9z"/>
</svg>
