<?xml version="1.0" encoding="UTF-8"?>
<svg xmlns="http://www.w3.org/2000/svg" xmlns:xlink="http://www.w3.org/1999/xlink" width="32pt" height="32pt" viewBox="0 0 32 32" version="1.1">
<g id="surface3543">
<path style=" stroke:none;fill-rule:nonzero;fill:rgb(0%,0%,0%);fill-opacity:1;" d="M 16 3 C 8.828125 3 3 8.828125 3 16 C 3 23.171875 8.828125 29 16 29 C 23.171875 29 29 23.171875 29 16 C 29 8.828125 23.171875 3 16 3 Z M 16 26.832031 C 9.996094 26.832031 5.167969 22.003906 5.167969 16 C 5.167969 9.996094 9.996094 5.167969 16 5.167969 C 22.003906 5.167969 26.832031 9.996094 26.832031 16 C 26.832031 22.003906 22.003906 26.832031 16 26.832031 Z M 16 26.832031 "/>
<path style=" stroke:none;fill-rule:nonzero;fill:rgb(0%,0%,0%);fill-opacity:1;" d="M 25.578125 11.914062 C 25.578125 13.019531 25.371094 14.257812 24.753906 15.792969 L 21.449219 25.359375 C 20.863281 25.71875 20.246094 26 19.597656 26.214844 C 19.5625 26.171875 19.542969 26.128906 19.519531 26.074219 L 16.183594 16.941406 L 12.933594 26.390625 C 12.75 26.335938 12.566406 26.28125 12.390625 26.21875 C 12.011719 26.074219 11.644531 25.925781 11.277344 25.75 L 11.265625 25.738281 L 5.964844 10.710938 C 5.976562 10.6875 4.976562 9.96875 5.511719 10.210938 C 5.589844 10.015625 5.855469 10.050781 5.964844 9.855469 C 6.074219 9.648438 6.179688 9.28125 6.308594 9.074219 C 6.363281 8.976562 6.746094 9.269531 6.808594 9.171875 C 7.058594 9.183594 7.296875 9.183594 7.503906 9.183594 C 8.640625 9.183594 10.394531 9.042969 10.394531 9.042969 C 10.96875 9.007812 11.046875 9.875 10.460938 9.941406 C 10.460938 9.941406 9.875 10.007812 9.214844 10.039062 L 13.3125 22.652344 L 15.675781 15.546875 L 13.851562 10.039062 C 13.265625 10.003906 12.714844 9.941406 12.714844 9.941406 C 12.128906 9.90625 12.195312 9.007812 12.777344 9.039062 C 12.777344 9.039062 14.566406 9.183594 15.628906 9.183594 C 16.765625 9.183594 18.519531 9.039062 18.519531 9.039062 C 19.105469 9.007812 19.171875 9.875 18.585938 9.941406 C 18.585938 9.941406 18 10.003906 17.351562 10.039062 L 21.417969 22.566406 L 22.488281 18.957031 C 22.964844 17.449219 23.3125 16.378906 23.3125 15.445312 C 23.3125 14.113281 22.835938 13.183594 22.425781 12.46875 C 21.871094 11.570312 21.417969 10.820312 21.417969 9.921875 C 21.417969 8.925781 22.109375 7.992188 23.171875 7.992188 C 23.226562 7.992188 23.269531 8.003906 23.3125 8.003906 L 23.324219 8.015625 C 23.539062 8.210938 24.421875 7.589844 24.617188 7.808594 C 24.789062 7.992188 24.910156 8.136719 25.074219 8.332031 C 25.730469 8.53125 25.691406 9.113281 25.734375 9.179688 C 25.898438 9.394531 25.8125 9.527344 25.953125 9.753906 C 26.117188 10.003906 25.371094 10.539062 25.511719 10.8125 C 25.554688 11.15625 25.578125 11.515625 25.578125 11.914062 Z M 25.578125 11.914062 "/>
</g>
</svg>
