<?xml version="1.0" encoding="utf-8"?>
<svg xmlns="http://www.w3.org/2000/svg" viewBox="0 0 16 16" fill="#ffffff"><path d="M 10 1 C 7.796781 1 6 2.796781 6 5 C 6 5.4823195 6.1540045 5.9119292 6.3105469 6.3339844 L 3.6328125 9.0136719 C 3.5860133 9.0100217 3.5515922 9 3.5 9 C 2.1250151 9 1 10.125015 1 11.5 C 1 12.874985 2.1250151 14 3.5 14 C 4.8749849 14 6 12.874985 6 11.5 C 6 11.45057 5.9917003 11.41952 5.9882812 11.375 L 8.6699219 8.6914062 C 9.0904533 8.8466592 9.5186735 9 10 9 C 12.203219 9 14 7.203219 14 5 C 14 4.4868352 13.894553 4.0036774 13.724609 3.5625 L 13.447266 2.84375 L 12.904297 3.3886719 L 11.292969 5 L 10 5 L 10 3.7070312 L 12.15625 1.5527344 L 11.4375 1.2753906 C 10.996323 1.1054473 10.513165 1 10 1 z M 10 2 C 10.08596 2 10.161999 2.03916 10.246094 2.046875 L 9 3.2929688 L 9 6 L 11.707031 6 L 12.953125 4.7539062 C 12.96084 4.8380013 13 4.9140373 13 5 C 13 6.662781 11.662781 8 10 8 C 9.5437844 8 9.1136091 7.8895487 8.7167969 7.7011719 L 8.3984375 7.5488281 L 4.9355469 11.013672 L 4.9746094 11.265625 C 4.9900376 11.36398 5 11.439729 5 11.5 C 5 12.335015 4.3350151 13 3.5 13 C 2.6649849 13 2 12.335015 2 11.5 C 2 10.664985 2.6649849 10 3.5 10 C 3.564545 10 3.6422417 10.009401 3.7421875 10.025391 L 3.9960938 10.066406 L 7.453125 6.6054688 L 7.3007812 6.2851562 C 7.1106399 5.8865571 7 5.4573673 7 5 C 7 3.337219 8.337219 2 10 2 z M 3.5 11 A 0.5 0.5 0 0 0 3 11.5 A 0.5 0.5 0 0 0 3.5 12 A 0.5 0.5 0 0 0 4 11.5 A 0.5 0.5 0 0 0 3.5 11 z" fill="#ffffff"/></svg>
