<?xml version="1.0" encoding="UTF-8"?><svg id="Layer_2" xmlns="http://www.w3.org/2000/svg" viewBox="0 0 998.6 270"><defs><style>.cls-1{fill:#111;}</style></defs><g id="Layer_1-2"><g><path class="cls-1" d="M33.7,0H0V233.9l134.8,36.1,134.8-36.1V0H33.7ZM235.9,208l-101.1,27.1-101.1-27.1V33.7H235.9V208Z"/><circle class="cls-1" cx="176.9" cy="92.8" r="25.3"/><path class="cls-1" d="M92.7,118.1c14,0,25.3-11.3,25.3-25.3s-11.3-25.3-25.3-25.3-25.3,11.3-25.3,25.3,11.3,25.3,25.3,25.3Z"/><circle class="cls-1" cx="134.8" cy="168.6" r="25.3"/><path class="cls-1" d="M337.1,135h-31.5v99h31.5c27.3,0,49.5-22.2,49.5-49.5s-22.2-49.5-49.5-49.5Zm0,81h-13.5v-63h13.5c17.4,0,31.5,14.1,31.5,31.5s-14.1,31.5-31.5,31.5Z"/><polygon class="cls-1" points="406.9 135.3 406.9 153.3 406.9 175.8 406.9 193.8 406.9 216.3 406.9 234.3 424.9 234.3 477.9 234.3 477.9 216.3 424.9 216.3 424.9 193.8 457.9 193.8 457.9 175.8 424.9 175.8 424.9 153.3 477.9 153.3 477.9 135.3 424.9 135.3 406.9 135.3"/><polygon class="cls-1" points="705.4 99 705.4 81 652.4 81 652.4 58.5 685.4 58.5 685.4 40.5 652.4 40.5 652.4 18 705.4 18 705.4 0 652.4 0 634.4 0 634.4 18 634.4 40.5 634.4 58.5 634.4 81 634.4 99 652.4 99 705.4 99"/><polygon class="cls-1" points="998.6 18 998.6 0 945.6 0 927.6 0 927.6 18 927.6 40.5 927.6 58.5 927.6 81 927.6 99 945.6 99 998.6 99 998.6 81 945.6 81 945.6 58.5 978.6 58.5 978.6 40.5 945.6 40.5 945.6 18 998.6 18"/><path class="cls-1" d="M462.9,0c-27.3,0-49.5,22.2-49.5,49.5s22.2,49.5,49.5,49.5,49.5-22.2,49.5-49.5S490.2,0,462.9,0Zm0,81c-17.4,0-31.5-14.1-31.5-31.5s14.1-31.5,31.5-31.5,31.5,14.1,31.5,31.5-14.1,31.5-31.5,31.5Z"/><path class="cls-1" d="M357.6,18c9.1,0,17.3,3.9,23.1,10.1l12.7-12.7c-9-9.4-21.7-15.3-35.8-15.3-27.3,0-49.5,22.2-49.5,49.5s22.2,49.5,49.5,49.5,26.8-5.9,35.8-15.3l-12.7-12.7c-5.8,6.2-14,10.1-23.1,10.1-17.4,0-31.5-14.1-31.5-31.5s14.1-31.5,31.5-31.5Z"/><path class="cls-1" d="M564.6,99c27.3,0,49.5-22.2,49.5-49.5S592,0,564.6,0h-31.5V99h31.5Zm-13.5-81h13.5c17.4,0,31.5,14.1,31.5,31.5s-14.1,31.5-31.5,31.5h-13.5V18Z"/><polygon class="cls-1" points="589.6 152.7 616.6 152.7 616.6 216.3 589.6 216.3 589.6 234.3 616.6 234.3 634.6 234.3 661.6 234.3 661.6 216.3 634.6 216.3 634.6 152.7 661.6 152.7 661.6 134.7 589.6 134.7 589.6 152.7"/><path class="cls-1" d="M785,61.4c12.6-4.1,21.7-16,21.7-29.9s-14.1-31.5-31.5-31.5h-49.5V99h18V63h21.4l20.8,36h20.8l-21.7-37.6Zm-9.8-16.4h-31.5V18h31.5c7.4,0,13.5,6.1,13.5,13.5s-6.1,13.5-13.5,13.5Z"/><path class="cls-1" d="M907.6,31.5c0-17.4-14.1-31.5-31.5-31.5h-49.5V99h18V63h21.4l20.8,36h20.8l-21.7-37.6c12.6-4.1,21.7-16,21.7-29.9Zm-31.5,13.5h-31.5V18h31.5c7.4,0,13.5,6.1,13.5,13.5s-6.1,13.5-13.5,13.5Z"/><path class="cls-1" d="M776.5,175.5h-44.2v18h30.2c-3.9,13-15.9,22.5-30.2,22.5s-31.5-14.1-31.5-31.5,14.1-31.5,31.5-31.5,16.6,3.5,22.3,9.2l12.7-12.7c-9-9-21.3-14.5-35-14.5-27.3,0-49.5,22.2-49.5,49.5s22.2,49.5,49.5,49.5,49.5-22.2,49.5-49.5-.3-6.1-.8-9h-4.4Z"/><polygon class="cls-1" points="861.7 202.8 822.5 135 819.7 135 801.7 135 801.7 234 819.7 234 819.7 166.2 858.9 234 861.7 234 879.7 234 879.7 135 861.7 135 861.7 202.8"/><path class="cls-1" d="M527.4,153h12.5c6.2,0,11.2,5,11.2,11.2h18c0-16.2-13.1-29.2-29.2-29.2h-12.5c-16.2,0-29.2,13.1-29.2,29.2s13.1,29.2,29.2,29.2h12.5c6.2,0,11.2,5,11.2,11.2s-5,11.2-11.2,11.2h-12.5c-6.2,0-11.2-5-11.2-11.3h-18c0,16.2,13.1,29.2,29.2,29.2h0s12.5,0,12.5,0c16.2,0,29.2-13.1,29.2-29.2s-13.1-29.2-29.2-29.2h-12.5c-6.2,0-11.2-5-11.2-11.2s5-11.2,11.2-11.2Z"/></g></g></svg>