<?xml version="1.0" encoding="utf-8"?>
<!-- Generator: Adobe Illustrator 25.2.3, SVG Export Plug-In . SVG Version: 6.00 Build 0)  -->
<svg version="1.1" id="Layer_1" xmlns="http://www.w3.org/2000/svg" xmlns:xlink="http://www.w3.org/1999/xlink" x="0px" y="0px"
	 viewBox="0 0 1000 1000" style="enable-background:new 0 0 1000 1000;" xml:space="preserve">
<style type="text/css">
	.st0{fill:none;}
	.st1{fill:#111111;stroke:#111111;stroke-width:4;stroke-miterlimit:10;}
</style>
<g id="Layer_2_1_">
	<g id="Layer_1-2">
		<rect class="st0" width="1000" height="1000"/>
		<path class="st1" d="M281.3,149.3"/>
		<path class="st1" d="M281.3,151.8c3.2,0,3.2-5,0-5S278.1,151.8,281.3,151.8z"/>
		<path class="st1" d="M787.9,368.4"/>
		<path class="st1" d="M787.9,370.9c3.2,0,3.2-5,0-5S784.7,370.9,787.9,370.9z"/>
		<path class="st1" d="M408.5,810.5"/>
		<path class="st1" d="M408.5,813c3.2,0,3.2-5,0-5S405.2,813,408.5,813z"/>
		<path class="st1" d="M535.6,397.8"/>
		<path class="st1" d="M535.6,400.2c3.2,0,3.2-5,0-5S532.4,400.2,535.6,400.2z"/>
		<path class="st1" d="M201.1,536.6"/>
		<path class="st1" d="M201.1,539.1c3.2,0,3.2-5,0-5S197.9,539.1,201.1,539.1z"/>
		<path class="st1" d="M891.6,855.5"/>
		<path class="st1" d="M891.6,858c3.2,0,3.2-5,0-5S888.4,858,891.6,858z"/>
		<path class="st1" d="M885.8,78.9"/>
		<path class="st1" d="M885.8,81.4c3.2,0,3.2-5,0-5S882.5,81.4,885.8,81.4z"/>
		<path class="st1" d="M619.7,656"/>
		<path class="st1" d="M619.7,658.5c3.2,0,3.2-5,0-5S616.5,658.5,619.7,658.5z"/>
		<path class="st1" d="M105.3,886.8"/>
		<path class="st1" d="M105.3,889.3c3.2,0,3.2-5,0-5S102,889.3,105.3,889.3z"/>
		<path class="st1" d="M99.4,284.3"/>
		<path class="st1" d="M99.4,286.8c3.2,0,3.2-5,0-5S96.2,286.8,99.4,286.8z"/>
	</g>
</g>
</svg>
