<svg xmlns="http://www.w3.org/2000/svg" viewBox="0 0 1000 1000"><defs><style>.cls-1{fill:none;}.cls-2{fill:#fff;}</style></defs><g id="Layer_2" data-name="Layer 2"><g id="Layer_1-2" data-name="Layer 1"><rect class="cls-1" width="1000" height="1000"/><path class="cls-2" d="M281.32,149.33"/><path class="cls-2" d="M281.32,151.83c3.22,0,3.22-5,0-5s-3.22,5,0,5Z"/><path class="cls-2" d="M787.94,368.41"/><path class="cls-2" d="M787.94,370.91c3.22,0,3.22-5,0-5s-3.22,5,0,5Z"/><path class="cls-2" d="M408.46,810.48"/><path class="cls-2" d="M408.46,813c3.22,0,3.23-5,0-5s-3.22,5,0,5Z"/><path class="cls-2" d="M535.61,397.75"/><path class="cls-2" d="M535.61,400.25c3.22,0,3.22-5,0-5s-3.22,5,0,5Z"/><path class="cls-2" d="M201.12,536.63"/><path class="cls-2" d="M201.12,539.13c3.22,0,3.22-5,0-5s-3.22,5,0,5Z"/><path class="cls-2" d="M891.61,855.47"/><path class="cls-2" d="M891.61,858c3.22,0,3.23-5,0-5s-3.22,5,0,5Z"/><path class="cls-2" d="M885.75,78.91"/><path class="cls-2" d="M885.75,81.41c3.21,0,3.22-5,0-5s-3.23,5,0,5Z"/><path class="cls-2" d="M619.72,656"/><path class="cls-2" d="M619.72,658.45c3.22,0,3.22-5,0-5s-3.22,5,0,5Z"/><path class="cls-2" d="M105.27,886.77"/><path class="cls-2" d="M105.27,889.27c3.22,0,3.23-5,0-5s-3.22,5,0,5Z"/><path class="cls-2" d="M99.41,284.3"/><path class="cls-2" d="M99.41,286.8c3.21,0,3.22-5,0-5s-3.23,5,0,5Z"/></g></g></svg>