<?xml version="1.0" encoding="utf-8"?>
<!-- Generator: Adobe Illustrator 26.4.1, SVG Export Plug-In . SVG Version: 6.00 Build 0)  -->
<svg version="1.1" id="Layer_1" xmlns="http://www.w3.org/2000/svg" xmlns:xlink="http://www.w3.org/1999/xlink" x="0px" y="0px"
	 viewBox="0 0 512 124.6" style="enable-background:new 0 0 512 124.6;" xml:space="preserve">
<g>
	<path d="M156.4,50.5c5.9,0,10.6-4.8,10.6-10.6s-4.8-10.6-10.6-10.6c-5.9,0-10.6,4.8-10.6,10.6S150.6,50.5,156.4,50.5z M506.6,86.7
		c-1.6-1.1-2.9-1.3-3.9,0.9c-17.8,38.6-47.9,19.3-44.9,21c6.7-3,24.2-17.1,21.5-36.5c-1.6-11.9-11.8-17.1-22.6-15.2
		c-18.9,3.3-25.8,23.6-22.3,41.6c0.6,3.1,1.7,5.6,2.8,8.1c-21.3,17.3-29.8-15.5-30.7-19.4c0-0.2,16.5-14,21-46.7
		c4.8-34.3-6.1-40.6-17.3-40.4c-20.7,0.4-26.3,43.7-18.8,79.7c-0.6,0.2-3.6,1.8-8.3,2c-3.4-10.7-17.9-20-21.7-16.4
		c-9.5,9,2.3,26.6,10.6,28c-5,30.7-36.1,23.1-30.3-15.4c10.1-18.8,17.9-46.9,16.5-63.8c-0.5-6-4.9-14-14.9-13.6
		c-19.3,0.8-21.4,44.1-19.1,74.8c-0.1-0.8-1.2,3.7-9.1,6c-1.9-10.4-18.6-20.8-22.5-15.8c-7.4,9.4,5.4,26,11.4,27.2
		c-5,30.7-36.1,23.1-30.3-15.4c10.1-18.8,17.9-46.9,16.5-63.8c-0.5-6-4.9-14-14.9-13.6c-19.3,0.8-21.4,44.1-19.1,74.8
		c-0.1-0.8-1.2,3.9-9.4,6.1c-0.3-13.4-17-19.6-21-15.3c-7.2,7.6,1.6,23.3,9.8,27.2c-5,30.7-36.1,23.1-30.3-15.4
		c10.1-18.8,17.9-46.9,16.5-63.8c-0.5-6-4.9-14-14.9-13.6c-19.3,0.8-20.8,46.2-18.6,77c-6.3,27.2-27.6,61.1-24.9-6.9
		c0.3-4.8,0.6-6.6-1.8-8.4c-1.8-1.4-5.8-0.7-8-0.7c-2.7,0.1-3.4,1.7-4,4.1c-1.4,6.1-1.6,12.1-1.8,20.2c-0.1,3.8-0.4,5.6-1.9,10.8
		c-1.5,5.2-9.8,14.7-14.4,13.1c-6.3-2.2-4.3-20.1-3.1-32.4c1-9.7-2.2-14.1-10.3-15.7c-4.8-1-7.6-0.8-12.6-2.4
		c-4.7-1.5-5.7-10.3-15.7-7.4c-5.5,1.6-2,13.2-3.3,21.8C80,115.3,66.6,116.5,60.4,96c28.1-68.7,8.1-95.8-3.6-95.8
		c-12.2,0-26.1,8.4-20.2,62c-2.9-0.8-3.7-1.3-6.9-1.3c-17.7,0-29.8,14.3-29.8,32s12.1,32,29.8,32c10.5,0,17.8-4.8,23.4-12.1
		c3.6,5.2,8,12.2,16.1,11.9c24.1-0.9,31.1-50.3,31.9-53.1c2.6,0.4,5,1.1,7.4,1.5c4,0.6,4.2,2.2,4.2,6.1c-1,33.6,5.2,45.4,19.2,45.4
		c7.8,0,14.8-7.7,19.6-13.2c3.6,7.4,9.3,13,17,13.2c18.6,0.5,25.7-29.2,25.1-25.3c-0.5,3.1,6,25.1,25.2,25.2
		c23.7,0.1,28.2-26,28.7-30.4c0.1-0.9,0.1-0.8,0,0c0,0.1,0,0.2,0,0.3C255,93,258.9,89,258.9,89s6.1,36,28.5,35.6
		c23.3-0.4,27.7-24,28.2-28.6c0.1-1.1,0.1-1,0,0v0.1c9-3.3,11.3-6.5,11.3-6.5s4.8,35.3,28.5,35.6c21.1,0.3,28.9-21.3,28.9-30.4
		c3.6,0,10.1-2.1,10-2.2c0,0,7.7,30.8,29.3,32.4c10.1,0.7,17.7-5.7,22.1-8.6c10.2,8.2,44.1,18.8,65.5-17.5
		C514.2,93.7,507.7,87.6,506.6,86.7z M28.9,113.1c-10.3,0-17-9.6-17-19.9S18,73.3,28.3,73.3c4.7,0,7.2,0.5,10.9,3.7
		c0.7,2.6,2.5,8.6,3.4,11.3c1.2,3.6,2.7,6.7,4.1,10.1C44.7,107,37.9,113.1,28.9,113.1z M54.1,77.3c-0.4-0.7-0.3-0.3-0.8-0.9
		c-1.9-5.2-5.5-16.7-6-29.7c-0.5-14.8,2-32.1,9.3-32.1C61.5,14.6,66.7,49.7,54.1,77.3z M199.7,61.9c-1.2-8.8-1.2-47.9,8.2-46.8
		C213,17.2,204.6,54.1,199.7,61.9z M268.2,61.9c-1.2-8.8-1.2-47.9,8.2-46.8C281.6,17.2,273.1,54.1,268.2,61.9z M336.3,62.5
		c-1.2-8.8-1.2-47.9,8.2-46.8C349.6,17.8,341.1,54.7,336.3,62.5z M411.4,12.8c8.6-0.9,8.2,36.6-9,60.3
		C400.1,64.5,396.7,15.8,411.4,12.8z M447.4,93.5c-2.8-13.9,4.4-23.1,11.7-24.1c2.6-0.4,6.3,1.3,7,4.4c1.2,5.9-0.2,14.5-16.6,25.6
		C449.6,99.4,448,96.6,447.4,93.5z"/>
</g>
</svg>
