<?xml version="1.0" encoding="UTF-8"?>
<svg xmlns="http://www.w3.org/2000/svg" xmlns:xlink="http://www.w3.org/1999/xlink" width="32pt" height="32pt" viewBox="0 0 32 32" version="1.1">
<g id="surface2506">
<path style="fill:none;stroke-width:2;stroke-linecap:butt;stroke-linejoin:miter;stroke:rgb(0%,0%,0%);stroke-opacity:1;stroke-miterlimit:10;" d="M 15 9 L 26 9 L 26 21 L 14 21 M 18 9 L 18 7 "/>
<path style=" stroke:none;fill-rule:nonzero;fill:rgb(0%,0%,0%);fill-opacity:1;" d="M 19 21 L 17 21 L 20 27 L 22 27 Z M 19 21 "/>
<path style=" stroke:none;fill-rule:nonzero;fill:rgb(0%,0%,0%);fill-opacity:1;" d="M 17 21 L 19 21 L 16 27 L 14 27 Z M 17 21 "/>
<path style="fill:none;stroke-width:2;stroke-linecap:butt;stroke-linejoin:miter;stroke:rgb(0%,0%,0%);stroke-opacity:1;stroke-miterlimit:10;" d="M 9.5 5 C 8.121094 5 7 6.121094 7 7.5 C 7 8.878906 8.121094 10 9.5 10 C 10.878906 10 12 8.878906 12 7.5 C 12 6.121094 10.878906 5 9.5 5 Z M 8 28 L 8 21.632812 L 6 20.632812 L 6 16 C 6 14.34375 7.34375 13 9 13 L 10.757812 13 C 11.554688 13 12.316406 13.316406 12.878906 13.878906 L 15 16 L 19 16 "/>
<path style=" stroke:none;fill-rule:nonzero;fill:rgb(0%,0%,0%);fill-opacity:1;" d="M 10 21 L 12 21 L 12 28 L 10 28 Z M 10 21 "/>
</g>
</svg>
