<?xml version="1.0" encoding="UTF-8"?>
<svg xmlns="http://www.w3.org/2000/svg" xmlns:xlink="http://www.w3.org/1999/xlink" width="32pt" height="32pt" viewBox="0 0 32 32" version="1.1">
<g id="surface4432">
<path style=" stroke:none;fill-rule:nonzero;fill:rgb(0%,0%,0%);fill-opacity:1;" d="M 6 12 L 14 12 L 14 14 L 6 14 Z M 6 12 "/>
<path style=" stroke:none;fill-rule:nonzero;fill:rgb(0%,0%,0%);fill-opacity:1;" d="M 18 12 L 26 12 L 26 14 L 18 14 Z M 18 12 "/>
<path style=" stroke:none;fill-rule:nonzero;fill:rgb(0%,0%,0%);fill-opacity:1;" d="M 6 16 L 14 16 L 14 18 L 6 18 Z M 6 16 "/>
<path style=" stroke:none;fill-rule:nonzero;fill:rgb(0%,0%,0%);fill-opacity:1;" d="M 18 16 L 26 16 L 26 18 L 18 18 Z M 18 16 "/>
<path style=" stroke:none;fill-rule:nonzero;fill:rgb(0%,0%,0%);fill-opacity:1;" d="M 16 26.203125 L 13.957031 24.839844 C 13.132812 24.289062 12.175781 23.980469 11.183594 23.980469 L 5 24 C 3.347656 24 2 22.652344 2 21 L 2 9 C 2 7.347656 3.347656 6 5 6 L 11.183594 6 C 12.570312 6 13.914062 6.40625 15.066406 7.175781 L 16 7.796875 L 16.933594 7.175781 C 18.085938 6.40625 19.429688 6 20.816406 6 L 27 6 C 28.652344 6 30 7.347656 30 9 L 30 21 C 30 22.652344 28.652344 24 27 24 L 20.816406 24 C 19.824219 24 18.867188 24.289062 18.042969 24.839844 Z M 5 8 C 4.449219 8 4 8.449219 4 9 L 4 21 C 4 21.550781 4.449219 22 5 22 L 11.183594 22 C 12.570312 22 13.914062 22.40625 15.066406 23.175781 L 16 23.796875 L 16.933594 23.175781 C 18.085938 22.40625 19.429688 22 20.816406 22 L 27 22 C 27.550781 22 28 21.550781 28 21 L 28 9 C 28 8.449219 27.550781 8 27 8 L 20.816406 8 C 19.824219 8 18.867188 8.289062 18.042969 8.839844 L 16 10.203125 L 13.957031 8.839844 C 13.132812 8.289062 12.175781 8 11.183594 8 Z M 5 8 "/>
</g>
</svg>
