<?xml version="1.0" encoding="UTF-8"?>
<svg xmlns="http://www.w3.org/2000/svg" xmlns:xlink="http://www.w3.org/1999/xlink" width="32pt" height="32pt" viewBox="0 0 32 32" version="1.1">
<g id="surface2719">
<path style="fill:none;stroke-width:2;stroke-linecap:butt;stroke-linejoin:miter;stroke:rgb(0%,0%,0%);stroke-opacity:1;stroke-miterlimit:10;" d="M 24.5 6.5 C 23.394531 6.5 22.5 7.394531 22.5 8.5 C 22.5 9.605469 23.394531 10.5 24.5 10.5 C 25.605469 10.5 26.5 9.605469 26.5 8.5 C 26.5 7.394531 25.605469 6.5 24.5 6.5 Z M 11.792969 8.191406 L 15.589844 7.117188 C 15.851562 7.042969 16.132812 7.078125 16.367188 7.214844 L 19.339844 8.957031 C 19.46875 9.03125 19.578125 9.136719 19.664062 9.261719 L 21.828125 12.464844 C 21.941406 12.632812 22 12.828125 22 13.027344 L 22 15 C 22 15.550781 22.449219 16 23 16 L 27 16 "/>
<path style="fill:none;stroke-width:2;stroke-linecap:butt;stroke-linejoin:miter;stroke:rgb(0%,0%,0%);stroke-opacity:1;stroke-miterlimit:10;" d="M 19.460938 9.121094 L 14.746094 13.097656 C 14.097656 13.648438 13.847656 14.539062 14.117188 15.347656 L 15.5625 19.683594 C 15.777344 20.332031 15.296875 21 14.613281 21 L 10 21 "/>
<path style=" stroke:none;fill-rule:nonzero;fill:rgb(0%,0%,0%);fill-opacity:1;" d="M 18.675781 21.191406 L 16.578125 26 L 18.761719 26 L 20.507812 21.988281 C 20.753906 21.425781 20.730469 20.792969 20.441406 20.25 L 18.476562 16.5625 L 21.671875 13.429688 L 20.269531 12 L 17.078125 15.132812 C 16.445312 15.746094 16.296875 16.722656 16.710938 17.5 Z M 12.617188 11 L 3 11 L 3 13 L 11.308594 13 C 11.570312 12.253906 12.011719 11.566406 12.617188 11 Z M 11.269531 16.296875 C 11.128906 15.867188 11.054688 15.433594 11.027344 15 L 3 15 L 3 17 L 11.503906 17 Z M 11.269531 16.296875 "/>
</g>
</svg>
